<svg aria-hidden="true" style="position: absolute; width: 0; height: 0; overflow: hidden;" version="1.1"
    xmlns="http://www.w3.org/2000/svg" xmlns:xlink="http://www.w3.org/1999/xlink">
    <defs>
        <symbol id="icon-logo" viewBox="0 0 32 32">
            <path
                d="M29.082 0.314h-4.009c-1.237 0-2.24 0.983-2.24 2.195v3.929c0 1.212 1.003 2.195 2.24 2.195h4.009c1.237 0 2.24-0.983 2.24-2.195v-3.929c0-1.212-1.003-2.195-2.24-2.195z">
            </path>
            <path
                d="M6.73 23.040h-4.318c-1.332 0-2.412 0.983-2.412 2.195v3.929c0 1.213 1.080 2.195 2.412 2.195h4.318c1.332 0 2.412-0.983 2.412-2.195v-3.929c0-1.212-1.080-2.195-2.412-2.195z">
            </path>
            <path
                d="M6.25 11.582h-4.009c-1.237 0-2.24 0.983-2.24 2.195v3.929c0 1.212 1.003 2.195 2.24 2.195h4.009c1.237 0 2.24-0.983 2.24-2.195v-3.929c0-1.212-1.003-2.195-2.24-2.195z">
            </path>
            <path
                d="M17.766 22.978h-4.009c-1.237 0-2.24 0.983-2.24 2.195l-0 3.929c0 1.212 1.003 2.195 2.241 2.195h4.009c1.237 0 2.24-0.983 2.24-2.195v-3.929c0-1.212-1.003-2.195-2.24-2.195z">
            </path>
            <path
                d="M6.25 0.086h-4.009c-1.237 0-2.24 0.983-2.24 2.195v3.929c0 1.212 1.003 2.195 2.24 2.195h4.009c1.237 0 2.24-0.983 2.24-2.195v-3.929c0-1.212-1.003-2.195-2.24-2.195z">
            </path>
            <path
                d="M18.076 11.697h-4.009c-1.237 0-2.24 0.983-2.24 2.195v3.929c0 1.212 1.003 2.195 2.24 2.195h4.009c1.237 0 2.24-0.983 2.24-2.195v-3.929c0-1.212-1.003-2.195-2.24-2.195z">
            </path>
            <path
                d="M29.333 22.978h-4.010c-1.237 0-2.24 0.983-2.24 2.195v3.929c0 1.212 1.003 2.195 2.24 2.195h4.009c1.237 0 2.24-0.983 2.24-2.195v-3.929c0-1.212-1.003-2.195-2.24-2.195z">
            </path>
            <path
                d="M17.591 0.224h-4.009c-1.237 0-2.24 0.983-2.24 2.195v3.929c0 1.212 1.003 2.195 2.24 2.195h4.009c1.237 0 2.24-0.984 2.24-2.196v-3.929c0-1.212-1.003-2.195-2.24-2.195z">
            </path>
            <path
                d="M29.044 11.926h-4.010c-1.237 0-2.24 0.983-2.24 2.195v3.929c0 1.212 1.003 2.195 2.24 2.195h4.009c1.237 0 2.24-0.983 2.24-2.195v-3.929c0-1.212-1.003-2.195-2.24-2.195z">
            </path>
        </symbol>
        <symbol id="station" width="20" height="20" viewBox="0 0 20 20">
            <path
                d="M16.4749 6.025L16.4833 6.01667L13.3833 2.91667L12.4999 3.8L14.2583 5.55833C13.4749 5.85833 12.9166 6.60833 12.9166 7.5C12.9166 7.77359 12.9705 8.0445 13.0752 8.29726C13.1799 8.55002 13.3333 8.77968 13.5268 8.97314C13.9175 9.36384 14.4474 9.58333 14.9999 9.58333C15.2999 9.58333 15.5749 9.51667 15.8333 9.40833V15.4167C15.8333 15.6377 15.7455 15.8496 15.5892 16.0059C15.4329 16.1622 15.2209 16.25 14.9999 16.25C14.7789 16.25 14.5669 16.1622 14.4107 16.0059C14.2544 15.8496 14.1666 15.6377 14.1666 15.4167V11.6667C14.1666 11.2246 13.991 10.8007 13.6784 10.4882C13.3659 10.1756 12.9419 10 12.4999 10H11.6666V4.16667C11.6666 3.72464 11.491 3.30072 11.1784 2.98816C10.8659 2.67559 10.4419 2.5 9.99992 2.5H4.99992C4.55789 2.5 4.13397 2.67559 3.82141 2.98816C3.50885 3.30072 3.33325 3.72464 3.33325 4.16667V17.5H11.6666V11.25H12.9166V15.4167C12.9166 15.9692 13.1361 16.4991 13.5268 16.8898C13.9175 17.2805 14.4474 17.5 14.9999 17.5C15.2735 17.5 15.5444 17.4461 15.7972 17.3414C16.0499 17.2367 16.2796 17.0833 16.4731 16.8898C16.6665 16.6964 16.82 16.4667 16.9247 16.2139C17.0294 15.9612 17.0833 15.6903 17.0833 15.4167V7.5C17.0833 6.925 16.8499 6.4 16.4749 6.025ZM9.99992 11.25V15.8333H4.99992V10H9.99992V11.25ZM9.99992 8.33333H4.99992V4.16667H9.99992V8.33333ZM14.9999 8.33333C14.7789 8.33333 14.5669 8.24554 14.4107 8.08926C14.2544 7.93297 14.1666 7.72101 14.1666 7.5C14.1666 7.27899 14.2544 7.06702 14.4107 6.91074C14.5669 6.75446 14.7789 6.66667 14.9999 6.66667C15.2209 6.66667 15.4329 6.75446 15.5892 6.91074C15.7455 7.06702 15.8333 7.27899 15.8333 7.5C15.8333 7.72101 15.7455 7.93297 15.5892 8.08926C15.4329 8.24554 15.2209 8.33333 14.9999 8.33333Z" />
        </symbol>

        <symbol id="automatic" width="17" height="18" viewBox="0 0 17 18">
            <path
                d="M1.45783 1.45783C1.91104 1.00461 2.52573 0.75 3.16667 0.75C3.80761 0.75 4.4223 1.00461 4.87551 1.45783C5.32872 1.91104 5.58333 2.52573 5.58333 3.16667C5.58333 3.80761 5.32872 4.4223 4.87551 4.87551C4.4223 5.32872 3.80761 5.58333 3.16667 5.58333C2.52573 5.58333 1.91104 5.32872 1.45783 4.87551C1.00461 4.4223 0.75 3.80761 0.75 3.16667C0.75 2.52573 1.00461 1.91104 1.45783 1.45783ZM3.16667 2.25C2.92355 2.25 2.69039 2.34658 2.51849 2.51849C2.34658 2.69039 2.25 2.92355 2.25 3.16667C2.25 3.40978 2.34658 3.64294 2.51849 3.81485C2.69039 3.98676 2.92355 4.08333 3.16667 4.08333C3.40978 4.08333 3.64294 3.98676 3.81485 3.81485C3.98676 3.64294 4.08333 3.40978 4.08333 3.16667C4.08333 2.92355 3.98676 2.69039 3.81485 2.51849C3.64294 2.34658 3.40978 2.25 3.16667 2.25ZM12.4167 5.66667C12.4167 5.25245 12.7525 4.91667 13.1667 4.91667H14.4167C14.9471 4.91667 15.4558 5.12738 15.8309 5.50245C16.206 5.87752 16.4167 6.38623 16.4167 6.91667C16.4167 7.4471 16.206 7.95581 15.8309 8.33088C15.4558 8.70595 14.9471 8.91667 14.4167 8.91667H13.9167V9.83333C13.9167 10.2475 13.5809 10.5833 13.1667 10.5833C12.7525 10.5833 12.4167 10.2475 12.4167 9.83333V5.66667ZM13.9167 7.41667H14.4167C14.5493 7.41667 14.6765 7.36399 14.7702 7.27022C14.864 7.17645 14.9167 7.04927 14.9167 6.91667C14.9167 6.78406 14.864 6.65688 14.7702 6.56311C14.6765 6.46934 14.5493 6.41667 14.4167 6.41667H13.9167V7.41667ZM12.4167 13.1667C12.4167 12.7525 12.7525 12.4167 13.1667 12.4167H14C14.6409 12.4167 15.2556 12.6713 15.7088 13.1245C16.1621 13.5777 16.4167 14.1924 16.4167 14.8333C16.4167 15.4743 16.1621 16.089 15.7088 16.5422C15.2556 16.9954 14.6409 17.25 14 17.25H13.1667C12.7525 17.25 12.4167 16.9142 12.4167 16.5V13.1667ZM13.9167 13.9167V15.75H14C14.2431 15.75 14.4763 15.6534 14.6482 15.4815C14.8201 15.3096 14.9167 15.0764 14.9167 14.8333C14.9167 14.5902 14.8201 14.3571 14.6482 14.1852C14.4763 14.0132 14.2431 13.9167 14 13.9167H13.9167Z" />
            <path
                d="M3.16675 4.08333C3.58096 4.08333 3.91675 4.41911 3.91675 4.83333V7.33333C3.91675 7.35543 3.92553 7.37663 3.94116 7.39225C3.95678 7.40788 3.97798 7.41666 4.00008 7.41666H9.83341C10.2476 7.41666 10.5834 7.75245 10.5834 8.16666C10.5834 8.58087 10.2476 8.91666 9.83341 8.91666H7.25008V14C7.25008 14.0221 7.25886 14.0433 7.27449 14.0589C7.29012 14.0745 7.31131 14.0833 7.33341 14.0833H9.83341C10.2476 14.0833 10.5834 14.4191 10.5834 14.8333C10.5834 15.2475 10.2476 15.5833 9.83341 15.5833H7.33341C6.91349 15.5833 6.51076 15.4165 6.21383 15.1196C5.9169 14.8226 5.75008 14.4199 5.75008 14V8.91666H4.00008C3.58015 8.91666 3.17743 8.74985 2.8805 8.45291C2.58356 8.15598 2.41675 7.75325 2.41675 7.33333V4.83333C2.41675 4.41911 2.75253 4.08333 3.16675 4.08333Z" />
        </symbol>

        <symbol id="Users" width="20" height="20" viewBox="0 0 20 20">
            <path
                d="M5.66666 15.0833H2.91666C2.74999 15.0833 2.66666 15 2.58333 14.9167C2.49999 14.8333 2.41666 14.6667 2.49999 14.5C2.99999 13.0833 4.24999 12.25 5.66666 12.25C7.41666 12.25 8.83333 10.75 8.83333 9.00001C8.83333 7.25001 7.41666 5.58334 5.66666 5.58334C3.91666 5.58334 2.49999 7.08334 2.49999 8.91668C2.49999 9.75001 2.83333 10.5833 3.33333 11.1667C2.24999 11.75 1.41666 12.6667 0.91666 13.9167C0.749994 14.5 0.833327 15.25 1.24999 15.8333C1.66666 16.4167 2.24999 16.75 2.91666 16.75H5.66666C6.16666 16.75 6.49999 16.4167 6.49999 15.9167C6.49999 15.4167 6.16666 15.0833 5.66666 15.0833ZM4.16666 8.91668C4.16666 8.00001 4.83333 7.33334 5.66666 7.33334C6.49999 7.33334 7.16666 8.08334 7.16666 8.91668C7.16666 9.83334 6.49999 10.5 5.66666 10.5C4.83333 10.5 4.16666 9.75001 4.16666 8.91668Z" />
            <path
                d="M19.0833 13.4167C18.5 11.8333 17.3333 10.6667 16 10C16.75 9.33335 17.1666 8.33335 17.1666 7.16668C17.1666 5.00002 15.5 3.25002 13.5 3.25002C11.5 3.25002 9.83331 5.00002 9.83331 7.16668C9.83331 8.25002 10.25 9.25002 11 10C9.66664 10.6667 8.49998 11.8333 7.91664 13.4167C7.49998 14.1667 7.66664 15 8.08331 15.6667C8.49998 16.3333 9.24998 16.6667 9.99998 16.6667H16.9166C17.6666 16.6667 18.4166 16.25 18.8333 15.6667C19.3333 15 19.4166 14.1667 19.0833 13.4167ZM11.4166 7.25001C11.4166 6.00001 12.3333 5.00002 13.4166 5.00002C14.5 5.00002 15.4166 6.00001 15.4166 7.25001C15.4166 8.50001 14.5 9.50002 13.4166 9.50002C12.3333 9.50002 11.4166 8.41668 11.4166 7.25001ZM17.4166 14.75C17.3333 14.8333 17.1666 15.0833 16.9166 15.0833H9.99998C9.66664 15.0833 9.49998 14.8333 9.49998 14.75C9.41664 14.6667 9.24998 14.3333 9.41665 14C10.0833 12.25 11.75 11.0833 13.5 11.0833C15.25 11.0833 16.9166 12.25 17.5833 14C17.6666 14.3333 17.5 14.6667 17.4166 14.75Z" />
        </symbol>
        <symbol id="heart" width="24" height="22" viewBox="0 0 24 22" fill="none">
            <path fill-rule="evenodd" clip-rule="evenodd"
                d="M14.4044 1.35467C15.2114 1.02029 16.0764 0.848175 16.95 0.848175C17.8235 0.848175 18.6885 1.02029 19.4955 1.35467C20.3024 1.68899 21.0355 2.17898 21.6529 2.79664C22.2708 3.41419 22.7609 4.14742 23.0953 4.95443C23.4297 5.76145 23.6018 6.62645 23.6018 7.5C23.6018 8.37356 23.4297 9.23855 23.0953 10.0456C22.7609 10.8525 22.2709 11.5857 21.6531 12.2032C21.6531 12.2032 21.6532 12.2031 21.6531 12.2032L12.8131 21.0432C12.5975 21.2588 12.305 21.38 12 21.38C11.695 21.38 11.4025 21.2588 11.1868 21.0432L2.3468 12.2032C1.09944 10.9558 0.398682 9.26403 0.398682 7.5C0.398682 5.73597 1.09944 4.04419 2.3468 2.79683C3.59416 1.54947 5.28594 0.84871 7.04997 0.84871C8.814 0.84871 10.5058 1.54947 11.7531 2.79683L12 3.04365L12.2466 2.79702C12.2467 2.79696 12.2465 2.79708 12.2466 2.79702C12.8641 2.17927 13.5975 1.68903 14.4044 1.35467ZM16.95 3.14818C16.3785 3.14818 15.8127 3.26076 15.2848 3.47949C14.7569 3.69823 14.2773 4.01883 13.8733 4.42298L12.8131 5.48317C12.364 5.93228 11.6359 5.93228 11.1868 5.48317L10.1268 4.42317C9.31077 3.60715 8.204 3.14871 7.04997 3.14871C5.89594 3.14871 4.78917 3.60715 3.97315 4.42317C3.15712 5.2392 2.69868 6.34597 2.69868 7.5C2.69868 8.65403 3.15712 9.7608 3.97315 10.5768L12 18.6037L20.0268 10.5768C20.4309 10.1729 20.7517 9.69305 20.9705 9.16514C21.1892 8.63724 21.3018 8.07142 21.3018 7.5C21.3018 6.92858 21.1892 6.36276 20.9705 5.83486C20.7517 5.30696 20.4311 4.82732 20.027 4.42336C19.623 4.01921 19.143 3.69823 18.6151 3.47949C18.0872 3.26076 17.5214 3.14818 16.95 3.14818Z" />
        </symbol>
        <symbol id="cumper-three" width="40" height="28" viewBox="0 0 40 28" fill="none">
            <path
                d="M2.28197 1.57469H13.14C13.2318 1.57469 13.318 1.53975 13.3831 1.47627L14.4262 0.45863C14.7294 0.162883 15.1324 0 15.5612 0H32.0257C32.7924 0 33.5042 0.371529 33.9299 0.994024L35.9032 3.88162C36.1831 4.29153 36.2088 4.81561 35.9707 5.25012C35.7327 5.68464 35.2706 5.95431 34.7657 5.95431H26.2799V6.79086H30.626C31.7781 6.79086 32.8146 7.45863 33.2666 8.49251L35.8113 14.311L38.0404 15.181C39.2308 15.6456 40 16.7537 40 18.0046V23.393C40 24.1966 39.3296 24.8506 38.5059 24.8506H35.9122C35.6106 26.6344 34.0187 28 32.1059 28C30.1932 28 28.6013 26.6344 28.2996 24.8506H14.1216C13.8199 26.6344 12.228 28 10.3153 28C8.40252 28 6.81059 26.6344 6.50895 24.8506H1.32812C0.595715 24.8506 0 24.2695 0 23.5549V3.80091C0 2.57315 1.02345 1.57469 2.28197 1.57469ZM32.1059 26.7698C33.5385 26.7698 34.7037 25.633 34.7037 24.2355C34.7037 22.838 33.5385 21.7012 32.1059 21.7012C30.6734 21.7012 29.5082 22.838 29.5082 24.2355C29.5082 25.633 30.6734 26.7698 32.1059 26.7698ZM26.2799 23.6204H28.2986C28.3037 23.5894 28.3102 23.5594 28.3163 23.5289C28.3203 23.5082 28.3238 23.4875 28.3284 23.4669C28.3385 23.4186 28.3501 23.3709 28.3622 23.3232C28.3647 23.3133 28.3667 23.3035 28.3697 23.2936C28.3849 23.2361 28.4015 23.1795 28.4192 23.1234C28.4242 23.1071 28.4303 23.0909 28.4358 23.0742C28.4489 23.0348 28.4625 22.9954 28.4767 22.9566C28.4847 22.9359 28.4928 22.9152 28.5014 22.8946C28.5145 22.8606 28.5276 22.8266 28.5422 22.7932C28.5513 22.771 28.5614 22.7494 28.5715 22.7277C28.5856 22.6957 28.5997 22.6647 28.6149 22.6333C28.626 22.6111 28.6366 22.5895 28.6482 22.5673C28.6633 22.5373 28.6794 22.5068 28.6956 22.4773C28.7072 22.4556 28.7193 22.434 28.7314 22.4123C28.748 22.3828 28.7657 22.3533 28.7834 22.3242C28.796 22.3035 28.8086 22.2829 28.8212 22.2622C28.8404 22.2327 28.8595 22.2037 28.8792 22.1741C28.8923 22.1549 28.9049 22.1357 28.918 22.117C28.9397 22.086 28.9624 22.0555 28.9856 22.025C28.9972 22.0088 29.0088 21.9925 29.0209 21.9768C29.0522 21.9364 29.084 21.8976 29.1163 21.8587C29.1208 21.8528 29.1253 21.8469 29.1304 21.841C29.1677 21.7967 29.2066 21.7534 29.2459 21.7111C29.258 21.6978 29.2706 21.6855 29.2832 21.6727C29.311 21.6437 29.3387 21.6146 29.3675 21.5861C29.3836 21.5703 29.4003 21.5551 29.4164 21.5398C29.4421 21.5152 29.4683 21.4906 29.4951 21.4665C29.5127 21.4508 29.5309 21.435 29.5491 21.4193C29.5753 21.3966 29.6015 21.3745 29.6282 21.3523L29.6858 21.3066C29.7125 21.2854 29.7397 21.2647 29.767 21.2441C29.7866 21.2293 29.8068 21.2146 29.827 21.2003C29.8547 21.1801 29.883 21.1609 29.9117 21.1412C29.9319 21.1279 29.9521 21.1142 29.9723 21.1009C30.002 21.0812 30.0328 21.0625 30.0631 21.0438C30.0827 21.032 30.1024 21.0197 30.1226 21.0079C30.1559 20.9882 30.1902 20.9695 30.2245 20.9508C30.2421 20.941 30.2593 20.9311 30.2764 20.9218C30.3253 20.8962 30.3743 20.8716 30.4237 20.8479C30.4277 20.8465 30.4313 20.8445 30.4353 20.8425C30.4888 20.8174 30.5433 20.7933 30.5977 20.7707C30.6154 20.7633 30.6335 20.7569 30.6512 20.7495C30.6885 20.7348 30.7264 20.72 30.7647 20.7057C30.7864 20.6979 30.8086 20.691 30.8303 20.6831C30.8651 20.6713 30.8999 20.6595 30.9352 20.6486C30.9589 20.6413 30.9826 20.6344 31.0068 20.6275C31.0411 20.6176 31.0754 20.6078 31.1097 20.5989C31.1344 20.5925 31.1591 20.5862 31.1844 20.5802C31.2187 20.5719 31.253 20.5645 31.2878 20.5571C31.313 20.5517 31.3382 20.5463 31.3639 20.5414C31.3992 20.535 31.4346 20.5286 31.4704 20.5232C31.4956 20.5187 31.5203 20.5148 31.546 20.5114C31.5828 20.5059 31.6202 20.5015 31.658 20.4971C31.6817 20.4946 31.7059 20.4912 31.7301 20.4892C31.7715 20.4853 31.8134 20.4823 31.8552 20.4799C31.8759 20.4784 31.8961 20.4764 31.9168 20.4759C31.9798 20.4725 32.0424 20.471 32.1059 20.471C32.1695 20.471 32.232 20.4725 32.2951 20.4759C32.3158 20.4764 32.3359 20.4784 32.3566 20.4799C32.3985 20.4823 32.4404 20.4853 32.4817 20.4892C32.5059 20.4912 32.5301 20.4946 32.5538 20.4971C32.5917 20.5015 32.629 20.5059 32.6658 20.5114C32.6916 20.5148 32.7163 20.5187 32.7415 20.5232C32.7773 20.5286 32.8126 20.535 32.8479 20.5414C32.8736 20.5463 32.8989 20.5517 32.9241 20.5571C32.9589 20.5645 32.9932 20.5719 33.0275 20.5802C33.0527 20.5862 33.0774 20.5925 33.1021 20.5989C33.1364 20.6078 33.1707 20.6176 33.205 20.6275C33.2293 20.6344 33.253 20.6413 33.2767 20.6486C33.312 20.6595 33.3468 20.6713 33.3816 20.6831C33.4033 20.691 33.4255 20.6979 33.4472 20.7057C33.4855 20.72 33.5233 20.7348 33.5607 20.7495C33.5783 20.7569 33.5965 20.7633 33.6141 20.7707C33.6686 20.7933 33.7231 20.8174 33.7765 20.8425C33.7806 20.8445 33.7841 20.8465 33.7881 20.8479C33.8376 20.8716 33.8865 20.8962 33.9354 20.9218C33.9526 20.9311 33.9697 20.941 33.9874 20.9508C34.0217 20.9695 34.056 20.9882 34.0893 21.0079C34.1095 21.0197 34.1291 21.032 34.1488 21.0438C34.1791 21.0625 34.2098 21.0812 34.2396 21.1009C34.2598 21.1142 34.2799 21.1279 34.3001 21.1412C34.3289 21.1609 34.3571 21.1801 34.3849 21.2003C34.405 21.2146 34.4252 21.2293 34.4449 21.2441C34.4721 21.2647 34.4994 21.2854 34.5261 21.3066L34.5836 21.3523C34.6103 21.3745 34.6366 21.3966 34.6628 21.4193C34.681 21.435 34.6991 21.4508 34.7168 21.4665C34.7435 21.4906 34.7697 21.5152 34.7955 21.5398C34.8116 21.5551 34.8282 21.5703 34.8444 21.5861C34.8731 21.6146 34.9009 21.6437 34.9286 21.6727C34.9412 21.6855 34.9538 21.6978 34.966 21.7111C35.0053 21.7534 35.0441 21.7967 35.0815 21.841C35.0865 21.8469 35.091 21.8528 35.0956 21.8587C35.1279 21.8976 35.1596 21.9364 35.1909 21.9768C35.203 21.9925 35.2146 22.0088 35.2262 22.025C35.2494 22.0555 35.2721 22.086 35.2938 22.117C35.3069 22.1357 35.3195 22.1549 35.3327 22.1741C35.3523 22.2037 35.3715 22.2327 35.3907 22.2622C35.4033 22.2829 35.4159 22.3035 35.4285 22.3242C35.4462 22.3533 35.4638 22.3828 35.4805 22.4123C35.4926 22.434 35.5047 22.4556 35.5163 22.4773C35.5324 22.5068 35.5486 22.5373 35.5637 22.5673C35.5753 22.5895 35.5859 22.6111 35.597 22.6333C35.6121 22.6647 35.6262 22.6957 35.6404 22.7277C35.6504 22.7494 35.6605 22.771 35.6696 22.7932C35.6842 22.8266 35.6974 22.8606 35.7105 22.8946C35.719 22.9152 35.7271 22.9359 35.7352 22.9566C35.7493 22.9954 35.7629 23.0348 35.776 23.0742C35.7816 23.0909 35.7876 23.1071 35.7927 23.1234C35.8103 23.1795 35.827 23.2361 35.8421 23.2936C35.8451 23.3035 35.8472 23.3133 35.8497 23.3232C35.8618 23.3709 35.8734 23.4186 35.8835 23.4669C35.888 23.4875 35.8916 23.5082 35.8956 23.5289C35.9016 23.5594 35.9082 23.5894 35.9132 23.6204H38.5059C38.6346 23.6204 38.739 23.5185 38.739 23.393V20.8155H37.7554V19.5852H38.739V18.0046C38.739 17.2596 38.281 16.5997 37.5723 16.3232L35.2126 15.4025H26.2799V23.6204ZM26.2799 14.1722H34.3798L32.1069 8.97526C31.8532 8.39557 31.2721 8.02109 30.626 8.02109H26.2799V14.1722ZM10.3153 26.7698C11.7478 26.7698 12.913 25.633 12.913 24.2355C12.913 22.838 11.7478 21.7012 10.3153 21.7012C10.2704 21.7012 10.226 21.7022 10.1816 21.7047C8.98815 21.7637 8.00454 22.6131 7.77049 23.7252C7.76192 23.7665 7.75385 23.8084 7.74729 23.8502C7.73418 23.9338 7.7256 24.019 7.72106 24.1051C7.71854 24.1484 7.71753 24.1917 7.71753 24.2355C7.71753 25.633 8.88272 26.7698 10.3153 26.7698ZM1.26103 19.5852H2.24464V20.8155H1.26103V23.5549C1.26103 23.5909 1.2913 23.6204 1.32812 23.6204H6.50795C6.51299 23.5899 6.51955 23.5599 6.5256 23.5298C6.52963 23.5087 6.53316 23.4875 6.5377 23.4664C6.54779 23.4191 6.55889 23.3724 6.571 23.3261C6.57402 23.3153 6.57604 23.304 6.57907 23.2931C6.5942 23.2361 6.61084 23.18 6.6285 23.1239C6.63404 23.1066 6.6401 23.0894 6.64565 23.0727C6.65876 23.0338 6.67188 22.9949 6.686 22.957C6.69407 22.9354 6.70265 22.9147 6.71072 22.8936C6.72383 22.8601 6.73745 22.8266 6.75107 22.7937C6.76066 22.771 6.77074 22.7489 6.78083 22.7268C6.79496 22.6957 6.80908 22.6647 6.82421 22.6337C6.8348 22.6111 6.84641 22.589 6.8575 22.5668C6.87263 22.5368 6.88827 22.5073 6.90442 22.4773C6.91652 22.4556 6.92862 22.434 6.94073 22.4123C6.95788 22.3828 6.97503 22.3537 6.99269 22.3247C7.00529 22.3036 7.01791 22.2829 7.03102 22.2622C7.04969 22.2327 7.06886 22.2037 7.08853 22.1751C7.10114 22.1554 7.11425 22.1357 7.12737 22.117C7.14906 22.086 7.17175 22.056 7.19395 22.026C7.20605 22.0093 7.21816 21.9925 7.23077 21.9763C7.26103 21.9374 7.29181 21.8991 7.32358 21.8612C7.32913 21.8543 7.33418 21.8474 7.33972 21.841C7.37756 21.7967 7.41589 21.7534 7.45523 21.7111C7.46784 21.6978 7.48045 21.685 7.49306 21.6717C7.52081 21.6427 7.54855 21.6141 7.5768 21.5861C7.59294 21.5703 7.60958 21.5551 7.62623 21.5393C7.65195 21.5147 7.67768 21.4906 7.70441 21.4665C7.72207 21.4508 7.74073 21.435 7.75889 21.4188C7.78461 21.3966 7.81084 21.3745 7.83758 21.3528C7.85675 21.3371 7.87592 21.3213 7.89559 21.3061C7.92182 21.2854 7.94905 21.2647 7.97629 21.2441C7.99596 21.2293 8.01614 21.2146 8.03632 21.2003C8.06406 21.1801 8.09231 21.1609 8.12055 21.1417C8.14124 21.1279 8.16141 21.1142 8.18159 21.1009C8.21135 21.0812 8.24161 21.0625 8.27188 21.0443C8.29206 21.032 8.31173 21.0197 8.3319 21.0079C8.36519 20.9882 8.39899 20.9695 8.43329 20.9508C8.45095 20.941 8.4681 20.9311 8.48625 20.9218C8.53417 20.8962 8.5826 20.8721 8.63203 20.8489C8.63607 20.847 8.6401 20.8445 8.64464 20.8425C8.69811 20.8174 8.75258 20.7933 8.80706 20.7707C8.82471 20.7633 8.84287 20.7569 8.86053 20.7495C8.89836 20.7348 8.93569 20.72 8.97402 20.7057C8.99571 20.6979 9.0179 20.691 9.0401 20.6831C9.0744 20.6713 9.10921 20.6595 9.14451 20.6486C9.16822 20.6413 9.19243 20.6344 9.21614 20.6275C9.25044 20.6176 9.28474 20.6078 9.31904 20.5989C9.34376 20.5925 9.36847 20.5862 9.39369 20.5802C9.42799 20.5719 9.4623 20.5645 9.4971 20.5571C9.52232 20.5517 9.54754 20.5463 9.57327 20.5414C9.60857 20.535 9.64388 20.5286 9.6797 20.5232C9.70492 20.5187 9.72964 20.5148 9.75536 20.5114C9.79218 20.5059 9.82951 20.5015 9.86734 20.4971C9.89105 20.4946 9.91526 20.4912 9.93947 20.4892C9.98083 20.4853 10.0227 20.4823 10.0646 20.4799C10.0852 20.4784 10.1054 20.4764 10.1261 20.4759C10.1892 20.4725 10.2517 20.471 10.3153 20.471C10.3788 20.471 10.4414 20.4725 10.5044 20.4759C10.5251 20.4764 10.5453 20.4784 10.566 20.4799C10.6078 20.4823 10.6497 20.4853 10.691 20.4892C10.7153 20.4912 10.7395 20.4946 10.7632 20.4971C10.801 20.5015 10.8383 20.5059 10.8752 20.5114C10.9009 20.5148 10.9256 20.5187 10.9508 20.5232C10.9866 20.5286 11.0219 20.535 11.0573 20.5414C11.083 20.5463 11.1082 20.5517 11.1334 20.5571C11.1682 20.5645 11.2025 20.5719 11.2368 20.5802C11.262 20.5862 11.2868 20.5925 11.3115 20.5989C11.3458 20.6078 11.3801 20.6176 11.4144 20.6275C11.4381 20.6344 11.4623 20.6413 11.486 20.6486C11.5213 20.6595 11.5561 20.6713 11.5904 20.6831C11.6126 20.691 11.6348 20.6979 11.6565 20.7057C11.6948 20.72 11.7322 20.7348 11.77 20.7495C11.7876 20.7569 11.8058 20.7633 11.8235 20.7707C11.8779 20.7933 11.9324 20.8174 11.9859 20.8425C11.9904 20.8445 11.9945 20.8465 11.9985 20.8489C12.0479 20.8721 12.0963 20.8962 12.1443 20.9218C12.1624 20.9311 12.1796 20.941 12.1972 20.9508C12.231 20.9695 12.2653 20.9882 12.2986 21.0079C12.3188 21.0197 12.3385 21.032 12.3586 21.0443C12.3889 21.0625 12.4192 21.0812 12.4489 21.1009C12.4691 21.1142 12.4893 21.1279 12.51 21.1417C12.5382 21.1609 12.5665 21.1801 12.5942 21.2003C12.6144 21.2146 12.6346 21.2293 12.6542 21.2441C12.6815 21.2647 12.7087 21.2854 12.7349 21.3061C12.7546 21.3213 12.7738 21.3371 12.7929 21.3528C12.8197 21.3745 12.8459 21.3966 12.8716 21.4193C12.8898 21.435 12.9084 21.4508 12.9261 21.4665C12.9528 21.4906 12.9786 21.5152 13.0048 21.5398C13.0209 21.5551 13.0376 21.5703 13.0537 21.5861C13.082 21.6141 13.1102 21.6432 13.138 21.6722C13.1501 21.685 13.1632 21.6978 13.1753 21.7111C13.2146 21.7534 13.253 21.7967 13.2908 21.841C13.2958 21.8474 13.3009 21.8538 13.3059 21.8597C13.3377 21.8981 13.3695 21.9369 13.3997 21.9768C13.4124 21.9925 13.424 22.0088 13.4361 22.025C13.4588 22.0555 13.4815 22.086 13.5032 22.117C13.5163 22.1357 13.5289 22.1554 13.542 22.1746C13.5617 22.2037 13.5808 22.2327 13.5995 22.2622C13.6126 22.2829 13.6252 22.3035 13.6378 22.3242C13.6555 22.3533 13.6731 22.3828 13.6898 22.4123C13.7019 22.434 13.714 22.4556 13.7256 22.4773C13.7422 22.5068 13.7579 22.5373 13.7735 22.5673C13.7846 22.5895 13.7952 22.6111 13.8063 22.6333C13.8214 22.6647 13.8356 22.6962 13.8497 22.7277C13.8598 22.7494 13.8699 22.771 13.8789 22.7932C13.8936 22.8266 13.9067 22.8606 13.9203 22.8946C13.9284 22.9152 13.9364 22.9359 13.9445 22.9566C13.9591 22.9959 13.9723 23.0353 13.9854 23.0751C13.9909 23.0914 13.997 23.1071 14.002 23.1234C14.0197 23.1795 14.0363 23.2366 14.052 23.2936C14.054 23.3025 14.056 23.3118 14.058 23.3207C14.0706 23.3694 14.0822 23.4181 14.0928 23.4673C14.0974 23.487 14.1009 23.5072 14.1044 23.5274C14.1105 23.5584 14.117 23.5889 14.1226 23.6204H25.0189V5.33919C25.0189 4.99965 25.3014 4.72408 25.6494 4.72408H34.7657C34.7813 4.72408 34.8293 4.72408 34.859 4.66946C34.8888 4.61533 34.8625 4.57645 34.8535 4.56415L32.8807 1.67656C32.6895 1.39705 32.3702 1.23023 32.0257 1.23023H15.5612C15.4694 1.23023 15.3831 1.26517 15.318 1.32865L14.2749 2.34629C13.9718 2.64204 13.5687 2.80492 13.14 2.80492H2.28197C1.71904 2.80492 1.26103 3.25174 1.26103 3.80091V19.5852Z" />
            <path
                d="M4.84372 6.2981H12.5562C13.4475 6.2981 14.1729 7.00572 14.1729 7.87525V11.4631C14.1729 12.3326 13.4475 13.0402 12.5562 13.0402H4.84321C3.95192 13.0402 3.22657 12.3326 3.22657 11.4631V7.87525C3.22707 7.00572 3.95242 6.2981 4.84372 6.2981ZM4.48811 11.4626C4.48811 11.6535 4.6475 11.8095 4.84372 11.8095H12.5562C12.7524 11.8095 12.9118 11.654 12.9118 11.4626V7.87476C12.9118 7.68382 12.7524 7.52783 12.5562 7.52783H4.84321C4.647 7.52783 4.4876 7.68333 4.4876 7.87476L4.48811 11.4626Z" />
        </symbol>
        <symbol id="cumper-two" width="40" height="28" viewBox="0 0 40 28" fill="none">
            <path
                d="M2.28197 1.57469H13.14C13.2318 1.57469 13.318 1.53975 13.3831 1.47627L14.4262 0.45863C14.7294 0.162883 15.1324 0 15.5612 0H32.0257C32.7924 0 33.5042 0.371529 33.9299 0.994024L35.9032 3.88162C36.1831 4.29153 36.2088 4.81561 35.9707 5.25012C35.7327 5.68464 35.2706 5.95431 34.7657 5.95431H26.2799V6.79086H30.626C31.7781 6.79086 32.8146 7.45863 33.2666 8.49251L35.8113 14.311L38.0404 15.181C39.2308 15.6456 40 16.7537 40 18.0046V23.393C40 24.1966 39.3296 24.8506 38.5059 24.8506H35.9122C35.6106 26.6344 34.0187 28 32.1059 28C30.1932 28 28.6013 26.6344 28.2996 24.8506H14.1216C13.8199 26.6344 12.228 28 10.3153 28C8.40252 28 6.81059 26.6344 6.50895 24.8506H1.32812C0.595715 24.8506 0 24.2695 0 23.5549V3.80091C0 2.57315 1.02345 1.57469 2.28197 1.57469ZM32.1059 26.7698C33.5385 26.7698 34.7037 25.633 34.7037 24.2355C34.7037 22.838 33.5385 21.7012 32.1059 21.7012C30.6734 21.7012 29.5082 22.838 29.5082 24.2355C29.5082 25.633 30.6734 26.7698 32.1059 26.7698ZM26.2799 23.6204H28.2986C28.3037 23.5894 28.3102 23.5594 28.3163 23.5289C28.3203 23.5082 28.3238 23.4875 28.3284 23.4669C28.3385 23.4186 28.3501 23.3709 28.3622 23.3232C28.3647 23.3133 28.3667 23.3035 28.3697 23.2936C28.3849 23.2361 28.4015 23.1795 28.4192 23.1234C28.4242 23.1071 28.4303 23.0909 28.4358 23.0742C28.4489 23.0348 28.4625 22.9954 28.4767 22.9566C28.4847 22.9359 28.4928 22.9152 28.5014 22.8946C28.5145 22.8606 28.5276 22.8266 28.5422 22.7932C28.5513 22.771 28.5614 22.7494 28.5715 22.7277C28.5856 22.6957 28.5997 22.6647 28.6149 22.6333C28.626 22.6111 28.6366 22.5895 28.6482 22.5673C28.6633 22.5373 28.6794 22.5068 28.6956 22.4773C28.7072 22.4556 28.7193 22.434 28.7314 22.4123C28.748 22.3828 28.7657 22.3533 28.7834 22.3242C28.796 22.3035 28.8086 22.2829 28.8212 22.2622C28.8404 22.2327 28.8595 22.2037 28.8792 22.1741C28.8923 22.1549 28.9049 22.1357 28.918 22.117C28.9397 22.086 28.9624 22.0555 28.9856 22.025C28.9972 22.0088 29.0088 21.9925 29.0209 21.9768C29.0522 21.9364 29.084 21.8976 29.1163 21.8587C29.1208 21.8528 29.1253 21.8469 29.1304 21.841C29.1677 21.7967 29.2066 21.7534 29.2459 21.7111C29.258 21.6978 29.2706 21.6855 29.2832 21.6727C29.311 21.6437 29.3387 21.6146 29.3675 21.5861C29.3836 21.5703 29.4003 21.5551 29.4164 21.5398C29.4421 21.5152 29.4683 21.4906 29.4951 21.4665C29.5127 21.4508 29.5309 21.435 29.5491 21.4193C29.5753 21.3966 29.6015 21.3745 29.6282 21.3523L29.6858 21.3066C29.7125 21.2854 29.7397 21.2647 29.767 21.2441C29.7866 21.2293 29.8068 21.2146 29.827 21.2003C29.8547 21.1801 29.883 21.1609 29.9117 21.1412C29.9319 21.1279 29.9521 21.1142 29.9723 21.1009C30.002 21.0812 30.0328 21.0625 30.0631 21.0438C30.0827 21.032 30.1024 21.0197 30.1226 21.0079C30.1559 20.9882 30.1902 20.9695 30.2245 20.9508C30.2421 20.941 30.2593 20.9311 30.2764 20.9218C30.3253 20.8962 30.3743 20.8716 30.4237 20.8479C30.4277 20.8465 30.4313 20.8445 30.4353 20.8425C30.4888 20.8174 30.5433 20.7933 30.5977 20.7707C30.6154 20.7633 30.6335 20.7569 30.6512 20.7495C30.6885 20.7348 30.7264 20.72 30.7647 20.7057C30.7864 20.6979 30.8086 20.691 30.8303 20.6831C30.8651 20.6713 30.8999 20.6595 30.9352 20.6486C30.9589 20.6413 30.9826 20.6344 31.0068 20.6275C31.0411 20.6176 31.0754 20.6078 31.1097 20.5989C31.1344 20.5925 31.1591 20.5862 31.1844 20.5802C31.2187 20.5719 31.253 20.5645 31.2878 20.5571C31.313 20.5517 31.3382 20.5463 31.3639 20.5414C31.3992 20.535 31.4346 20.5286 31.4704 20.5232C31.4956 20.5187 31.5203 20.5148 31.546 20.5114C31.5828 20.5059 31.6202 20.5015 31.658 20.4971C31.6817 20.4946 31.7059 20.4912 31.7301 20.4892C31.7715 20.4853 31.8134 20.4823 31.8552 20.4799C31.8759 20.4784 31.8961 20.4764 31.9168 20.4759C31.9798 20.4725 32.0424 20.471 32.1059 20.471C32.1695 20.471 32.232 20.4725 32.2951 20.4759C32.3158 20.4764 32.3359 20.4784 32.3566 20.4799C32.3985 20.4823 32.4404 20.4853 32.4817 20.4892C32.5059 20.4912 32.5301 20.4946 32.5538 20.4971C32.5917 20.5015 32.629 20.5059 32.6658 20.5114C32.6916 20.5148 32.7163 20.5187 32.7415 20.5232C32.7773 20.5286 32.8126 20.535 32.8479 20.5414C32.8736 20.5463 32.8989 20.5517 32.9241 20.5571C32.9589 20.5645 32.9932 20.5719 33.0275 20.5802C33.0527 20.5862 33.0774 20.5925 33.1021 20.5989C33.1364 20.6078 33.1707 20.6176 33.205 20.6275C33.2293 20.6344 33.253 20.6413 33.2767 20.6486C33.312 20.6595 33.3468 20.6713 33.3816 20.6831C33.4033 20.691 33.4255 20.6979 33.4472 20.7057C33.4855 20.72 33.5233 20.7348 33.5607 20.7495C33.5783 20.7569 33.5965 20.7633 33.6141 20.7707C33.6686 20.7933 33.7231 20.8174 33.7765 20.8425C33.7806 20.8445 33.7841 20.8465 33.7881 20.8479C33.8376 20.8716 33.8865 20.8962 33.9354 20.9218C33.9526 20.9311 33.9697 20.941 33.9874 20.9508C34.0217 20.9695 34.056 20.9882 34.0893 21.0079C34.1095 21.0197 34.1291 21.032 34.1488 21.0438C34.1791 21.0625 34.2098 21.0812 34.2396 21.1009C34.2598 21.1142 34.2799 21.1279 34.3001 21.1412C34.3289 21.1609 34.3571 21.1801 34.3849 21.2003C34.405 21.2146 34.4252 21.2293 34.4449 21.2441C34.4721 21.2647 34.4994 21.2854 34.5261 21.3066L34.5836 21.3523C34.6103 21.3745 34.6366 21.3966 34.6628 21.4193C34.681 21.435 34.6991 21.4508 34.7168 21.4665C34.7435 21.4906 34.7697 21.5152 34.7955 21.5398C34.8116 21.5551 34.8282 21.5703 34.8444 21.5861C34.8731 21.6146 34.9009 21.6437 34.9286 21.6727C34.9412 21.6855 34.9538 21.6978 34.966 21.7111C35.0053 21.7534 35.0441 21.7967 35.0815 21.841C35.0865 21.8469 35.091 21.8528 35.0956 21.8587C35.1279 21.8976 35.1596 21.9364 35.1909 21.9768C35.203 21.9925 35.2146 22.0088 35.2262 22.025C35.2494 22.0555 35.2721 22.086 35.2938 22.117C35.3069 22.1357 35.3195 22.1549 35.3327 22.1741C35.3523 22.2037 35.3715 22.2327 35.3907 22.2622C35.4033 22.2829 35.4159 22.3035 35.4285 22.3242C35.4462 22.3533 35.4638 22.3828 35.4805 22.4123C35.4926 22.434 35.5047 22.4556 35.5163 22.4773C35.5324 22.5068 35.5486 22.5373 35.5637 22.5673C35.5753 22.5895 35.5859 22.6111 35.597 22.6333C35.6121 22.6647 35.6262 22.6957 35.6404 22.7277C35.6504 22.7494 35.6605 22.771 35.6696 22.7932C35.6842 22.8266 35.6974 22.8606 35.7105 22.8946C35.719 22.9152 35.7271 22.9359 35.7352 22.9566C35.7493 22.9954 35.7629 23.0348 35.776 23.0742C35.7816 23.0909 35.7876 23.1071 35.7927 23.1234C35.8103 23.1795 35.827 23.2361 35.8421 23.2936C35.8451 23.3035 35.8472 23.3133 35.8497 23.3232C35.8618 23.3709 35.8734 23.4186 35.8835 23.4669C35.888 23.4875 35.8916 23.5082 35.8956 23.5289C35.9016 23.5594 35.9082 23.5894 35.9132 23.6204H38.5059C38.6346 23.6204 38.739 23.5185 38.739 23.393V20.8155H37.7554V19.5852H38.739V18.0046C38.739 17.2596 38.281 16.5997 37.5723 16.3232L35.2126 15.4025H26.2799V23.6204ZM26.2799 14.1722H34.3798L32.1069 8.97526C31.8532 8.39557 31.2721 8.02109 30.626 8.02109H26.2799V14.1722ZM10.3153 26.7698C11.7478 26.7698 12.913 25.633 12.913 24.2355C12.913 22.838 11.7478 21.7012 10.3153 21.7012C10.2704 21.7012 10.226 21.7022 10.1816 21.7047C8.98815 21.7637 8.00454 22.6131 7.77049 23.7252C7.76192 23.7665 7.75385 23.8084 7.74729 23.8502C7.73418 23.9338 7.7256 24.019 7.72106 24.1051C7.71854 24.1484 7.71753 24.1917 7.71753 24.2355C7.71753 25.633 8.88272 26.7698 10.3153 26.7698ZM1.26103 19.5852H2.24464V20.8155H1.26103V23.5549C1.26103 23.5909 1.2913 23.6204 1.32812 23.6204H6.50795C6.51299 23.5899 6.51955 23.5599 6.5256 23.5298C6.52963 23.5087 6.53316 23.4875 6.5377 23.4664C6.54779 23.4191 6.55889 23.3724 6.571 23.3261C6.57402 23.3153 6.57604 23.304 6.57907 23.2931C6.5942 23.2361 6.61084 23.18 6.6285 23.1239C6.63404 23.1066 6.6401 23.0894 6.64565 23.0727C6.65876 23.0338 6.67188 22.9949 6.686 22.957C6.69407 22.9354 6.70265 22.9147 6.71072 22.8936C6.72383 22.8601 6.73745 22.8266 6.75107 22.7937C6.76066 22.771 6.77074 22.7489 6.78083 22.7268C6.79496 22.6957 6.80908 22.6647 6.82421 22.6337C6.8348 22.6111 6.84641 22.589 6.8575 22.5668C6.87263 22.5368 6.88827 22.5073 6.90442 22.4773C6.91652 22.4556 6.92862 22.434 6.94073 22.4123C6.95788 22.3828 6.97503 22.3537 6.99269 22.3247C7.00529 22.3036 7.01791 22.2829 7.03102 22.2622C7.04969 22.2327 7.06886 22.2037 7.08853 22.1751C7.10114 22.1554 7.11425 22.1357 7.12737 22.117C7.14906 22.086 7.17175 22.056 7.19395 22.026C7.20605 22.0093 7.21816 21.9925 7.23077 21.9763C7.26103 21.9374 7.29181 21.8991 7.32358 21.8612C7.32913 21.8543 7.33418 21.8474 7.33972 21.841C7.37756 21.7967 7.41589 21.7534 7.45523 21.7111C7.46784 21.6978 7.48045 21.685 7.49306 21.6717C7.52081 21.6427 7.54855 21.6141 7.5768 21.5861C7.59294 21.5703 7.60958 21.5551 7.62623 21.5393C7.65195 21.5147 7.67768 21.4906 7.70441 21.4665C7.72207 21.4508 7.74073 21.435 7.75889 21.4188C7.78461 21.3966 7.81084 21.3745 7.83758 21.3528C7.85675 21.3371 7.87592 21.3213 7.89559 21.3061C7.92182 21.2854 7.94905 21.2647 7.97629 21.2441C7.99596 21.2293 8.01614 21.2146 8.03632 21.2003C8.06406 21.1801 8.09231 21.1609 8.12055 21.1417C8.14124 21.1279 8.16141 21.1142 8.18159 21.1009C8.21135 21.0812 8.24161 21.0625 8.27188 21.0443C8.29206 21.032 8.31173 21.0197 8.3319 21.0079C8.36519 20.9882 8.39899 20.9695 8.43329 20.9508C8.45095 20.941 8.4681 20.9311 8.48625 20.9218C8.53417 20.8962 8.5826 20.8721 8.63203 20.8489C8.63607 20.847 8.6401 20.8445 8.64464 20.8425C8.69811 20.8174 8.75258 20.7933 8.80706 20.7707C8.82471 20.7633 8.84287 20.7569 8.86053 20.7495C8.89836 20.7348 8.93569 20.72 8.97402 20.7057C8.99571 20.6979 9.0179 20.691 9.0401 20.6831C9.0744 20.6713 9.10921 20.6595 9.14451 20.6486C9.16822 20.6413 9.19243 20.6344 9.21614 20.6275C9.25044 20.6176 9.28474 20.6078 9.31904 20.5989C9.34376 20.5925 9.36847 20.5862 9.39369 20.5802C9.42799 20.5719 9.4623 20.5645 9.4971 20.5571C9.52232 20.5517 9.54754 20.5463 9.57327 20.5414C9.60857 20.535 9.64388 20.5286 9.6797 20.5232C9.70492 20.5187 9.72964 20.5148 9.75536 20.5114C9.79218 20.5059 9.82951 20.5015 9.86734 20.4971C9.89105 20.4946 9.91526 20.4912 9.93947 20.4892C9.98083 20.4853 10.0227 20.4823 10.0646 20.4799C10.0852 20.4784 10.1054 20.4764 10.1261 20.4759C10.1892 20.4725 10.2517 20.471 10.3153 20.471C10.3788 20.471 10.4414 20.4725 10.5044 20.4759C10.5251 20.4764 10.5453 20.4784 10.566 20.4799C10.6078 20.4823 10.6497 20.4853 10.691 20.4892C10.7153 20.4912 10.7395 20.4946 10.7632 20.4971C10.801 20.5015 10.8383 20.5059 10.8752 20.5114C10.9009 20.5148 10.9256 20.5187 10.9508 20.5232C10.9866 20.5286 11.0219 20.535 11.0573 20.5414C11.083 20.5463 11.1082 20.5517 11.1334 20.5571C11.1682 20.5645 11.2025 20.5719 11.2368 20.5802C11.262 20.5862 11.2868 20.5925 11.3115 20.5989C11.3458 20.6078 11.3801 20.6176 11.4144 20.6275C11.4381 20.6344 11.4623 20.6413 11.486 20.6486C11.5213 20.6595 11.5561 20.6713 11.5904 20.6831C11.6126 20.691 11.6348 20.6979 11.6565 20.7057C11.6948 20.72 11.7322 20.7348 11.77 20.7495C11.7876 20.7569 11.8058 20.7633 11.8235 20.7707C11.8779 20.7933 11.9324 20.8174 11.9859 20.8425C11.9904 20.8445 11.9945 20.8465 11.9985 20.8489C12.0479 20.8721 12.0963 20.8962 12.1443 20.9218C12.1624 20.9311 12.1796 20.941 12.1972 20.9508C12.231 20.9695 12.2653 20.9882 12.2986 21.0079C12.3188 21.0197 12.3385 21.032 12.3586 21.0443C12.3889 21.0625 12.4192 21.0812 12.4489 21.1009C12.4691 21.1142 12.4893 21.1279 12.51 21.1417C12.5382 21.1609 12.5665 21.1801 12.5942 21.2003C12.6144 21.2146 12.6346 21.2293 12.6542 21.2441C12.6815 21.2647 12.7087 21.2854 12.7349 21.3061C12.7546 21.3213 12.7738 21.3371 12.7929 21.3528C12.8197 21.3745 12.8459 21.3966 12.8716 21.4193C12.8898 21.435 12.9084 21.4508 12.9261 21.4665C12.9528 21.4906 12.9786 21.5152 13.0048 21.5398C13.0209 21.5551 13.0376 21.5703 13.0537 21.5861C13.082 21.6141 13.1102 21.6432 13.138 21.6722C13.1501 21.685 13.1632 21.6978 13.1753 21.7111C13.2146 21.7534 13.253 21.7967 13.2908 21.841C13.2958 21.8474 13.3009 21.8538 13.3059 21.8597C13.3377 21.8981 13.3695 21.9369 13.3997 21.9768C13.4124 21.9925 13.424 22.0088 13.4361 22.025C13.4588 22.0555 13.4815 22.086 13.5032 22.117C13.5163 22.1357 13.5289 22.1554 13.542 22.1746C13.5617 22.2037 13.5808 22.2327 13.5995 22.2622C13.6126 22.2829 13.6252 22.3035 13.6378 22.3242C13.6555 22.3533 13.6731 22.3828 13.6898 22.4123C13.7019 22.434 13.714 22.4556 13.7256 22.4773C13.7422 22.5068 13.7579 22.5373 13.7735 22.5673C13.7846 22.5895 13.7952 22.6111 13.8063 22.6333C13.8214 22.6647 13.8356 22.6962 13.8497 22.7277C13.8598 22.7494 13.8699 22.771 13.8789 22.7932C13.8936 22.8266 13.9067 22.8606 13.9203 22.8946C13.9284 22.9152 13.9364 22.9359 13.9445 22.9566C13.9591 22.9959 13.9723 23.0353 13.9854 23.0751C13.9909 23.0914 13.997 23.1071 14.002 23.1234C14.0197 23.1795 14.0363 23.2366 14.052 23.2936C14.054 23.3025 14.056 23.3118 14.058 23.3207C14.0706 23.3694 14.0822 23.4181 14.0928 23.4673C14.0974 23.487 14.1009 23.5072 14.1044 23.5274C14.1105 23.5584 14.117 23.5889 14.1226 23.6204H25.0189V5.33919C25.0189 4.99965 25.3014 4.72408 25.6494 4.72408H34.7657C34.7813 4.72408 34.8293 4.72408 34.859 4.66946C34.8888 4.61533 34.8625 4.57645 34.8535 4.56415L32.8807 1.67656C32.6895 1.39705 32.3702 1.23023 32.0257 1.23023H15.5612C15.4694 1.23023 15.3831 1.26517 15.318 1.32865L14.2749 2.34629C13.9718 2.64204 13.5687 2.80492 13.14 2.80492H2.28197C1.71904 2.80492 1.26103 3.25174 1.26103 3.80091V19.5852Z" />
            <path
                d="M17.6013 6.2981H21.5897C22.3953 6.2981 23.051 6.93732 23.051 7.72368V20.8886C23.051 21.2281 22.7686 21.5037 22.4205 21.5037H16.7711C16.423 21.5037 16.1406 21.2281 16.1406 20.8886V7.72368C16.1401 6.93732 16.7953 6.2981 17.6013 6.2981ZM17.4011 20.2735H21.7895V13.0397H17.4011V20.2735ZM17.4011 11.8095H21.7895V7.72368C21.7895 7.61592 21.6997 7.52832 21.5892 7.52832H17.6008C17.4904 7.52832 17.4006 7.61592 17.4006 7.72368L17.4011 11.8095Z" />
        </symbol>
        <symbol xmlns="http://www.w3.org/2000/svg" viewBox="0 0 40 28" id="camper">
            <path
                d="M2.28197 1.57469H13.14C13.2318 1.57469 13.318 1.53975 13.3831 1.47627L14.4262 0.45863C14.7294 0.162883 15.1324 0 15.5612 0H32.0257C32.7924 0 33.5042 0.371529 33.9299 0.994024L35.9032 3.88162C36.1831 4.29153 36.2088 4.81561 35.9707 5.25012C35.7327 5.68464 35.2706 5.95431 34.7657 5.95431H26.2799V6.79086H30.626C31.7781 6.79086 32.8146 7.45863 33.2666 8.49251L35.8113 14.311L38.0404 15.181C39.2308 15.6456 40 16.7537 40 18.0046V23.393C40 24.1966 39.3296 24.8506 38.5059 24.8506H35.9122C35.6106 26.6344 34.0187 28 32.1059 28C30.1932 28 28.6013 26.6344 28.2996 24.8506H14.1216C13.8199 26.6344 12.228 28 10.3153 28C8.40252 28 6.81059 26.6344 6.50895 24.8506H1.32812C0.595715 24.8506 0 24.2695 0 23.5549V3.80091C0 2.57315 1.02345 1.57469 2.28197 1.57469ZM32.1059 26.7698C33.5385 26.7698 34.7037 25.633 34.7037 24.2355C34.7037 22.838 33.5385 21.7012 32.1059 21.7012C30.6734 21.7012 29.5082 22.838 29.5082 24.2355C29.5082 25.633 30.6734 26.7698 32.1059 26.7698ZM26.2799 23.6204H28.2986C28.3037 23.5894 28.3102 23.5594 28.3163 23.5289C28.3203 23.5082 28.3238 23.4875 28.3284 23.4669C28.3385 23.4186 28.3501 23.3709 28.3622 23.3232C28.3647 23.3133 28.3667 23.3035 28.3697 23.2936C28.3849 23.2361 28.4015 23.1795 28.4192 23.1234C28.4242 23.1071 28.4303 23.0909 28.4358 23.0742C28.4489 23.0348 28.4625 22.9954 28.4767 22.9566C28.4847 22.9359 28.4928 22.9152 28.5014 22.8946C28.5145 22.8606 28.5276 22.8266 28.5422 22.7932C28.5513 22.771 28.5614 22.7494 28.5715 22.7277C28.5856 22.6957 28.5997 22.6647 28.6149 22.6333C28.626 22.6111 28.6366 22.5895 28.6482 22.5673C28.6633 22.5373 28.6794 22.5068 28.6956 22.4773C28.7072 22.4556 28.7193 22.434 28.7314 22.4123C28.748 22.3828 28.7657 22.3533 28.7834 22.3242C28.796 22.3035 28.8086 22.2829 28.8212 22.2622C28.8404 22.2327 28.8595 22.2037 28.8792 22.1741C28.8923 22.1549 28.9049 22.1357 28.918 22.117C28.9397 22.086 28.9624 22.0555 28.9856 22.025C28.9972 22.0088 29.0088 21.9925 29.0209 21.9768C29.0522 21.9364 29.084 21.8976 29.1163 21.8587C29.1208 21.8528 29.1253 21.8469 29.1304 21.841C29.1677 21.7967 29.2066 21.7534 29.2459 21.7111C29.258 21.6978 29.2706 21.6855 29.2832 21.6727C29.311 21.6437 29.3387 21.6146 29.3675 21.5861C29.3836 21.5703 29.4003 21.5551 29.4164 21.5398C29.4421 21.5152 29.4683 21.4906 29.4951 21.4665C29.5127 21.4508 29.5309 21.435 29.5491 21.4193C29.5753 21.3966 29.6015 21.3745 29.6282 21.3523L29.6858 21.3066C29.7125 21.2854 29.7397 21.2647 29.767 21.2441C29.7866 21.2293 29.8068 21.2146 29.827 21.2003C29.8547 21.1801 29.883 21.1609 29.9117 21.1412C29.9319 21.1279 29.9521 21.1142 29.9723 21.1009C30.002 21.0812 30.0328 21.0625 30.0631 21.0438C30.0827 21.032 30.1024 21.0197 30.1226 21.0079C30.1559 20.9882 30.1902 20.9695 30.2245 20.9508C30.2421 20.941 30.2593 20.9311 30.2764 20.9218C30.3253 20.8962 30.3743 20.8716 30.4237 20.8479C30.4277 20.8465 30.4313 20.8445 30.4353 20.8425C30.4888 20.8174 30.5433 20.7933 30.5977 20.7707C30.6154 20.7633 30.6335 20.7569 30.6512 20.7495C30.6885 20.7348 30.7264 20.72 30.7647 20.7057C30.7864 20.6979 30.8086 20.691 30.8303 20.6831C30.8651 20.6713 30.8999 20.6595 30.9352 20.6486C30.9589 20.6413 30.9826 20.6344 31.0068 20.6275C31.0411 20.6176 31.0754 20.6078 31.1097 20.5989C31.1344 20.5925 31.1591 20.5862 31.1844 20.5802C31.2187 20.5719 31.253 20.5645 31.2878 20.5571C31.313 20.5517 31.3382 20.5463 31.3639 20.5414C31.3992 20.535 31.4346 20.5286 31.4704 20.5232C31.4956 20.5187 31.5203 20.5148 31.546 20.5114C31.5828 20.5059 31.6202 20.5015 31.658 20.4971C31.6817 20.4946 31.7059 20.4912 31.7301 20.4892C31.7715 20.4853 31.8134 20.4823 31.8552 20.4799C31.8759 20.4784 31.8961 20.4764 31.9168 20.4759C31.9798 20.4725 32.0424 20.471 32.1059 20.471C32.1695 20.471 32.232 20.4725 32.2951 20.4759C32.3158 20.4764 32.3359 20.4784 32.3566 20.4799C32.3985 20.4823 32.4404 20.4853 32.4817 20.4892C32.5059 20.4912 32.5301 20.4946 32.5538 20.4971C32.5917 20.5015 32.629 20.5059 32.6658 20.5114C32.6916 20.5148 32.7163 20.5187 32.7415 20.5232C32.7773 20.5286 32.8126 20.535 32.8479 20.5414C32.8736 20.5463 32.8989 20.5517 32.9241 20.5571C32.9589 20.5645 32.9932 20.5719 33.0275 20.5802C33.0527 20.5862 33.0774 20.5925 33.1021 20.5989C33.1364 20.6078 33.1707 20.6176 33.205 20.6275C33.2293 20.6344 33.253 20.6413 33.2767 20.6486C33.312 20.6595 33.3468 20.6713 33.3816 20.6831C33.4033 20.691 33.4255 20.6979 33.4472 20.7057C33.4855 20.72 33.5233 20.7348 33.5607 20.7495C33.5783 20.7569 33.5965 20.7633 33.6141 20.7707C33.6686 20.7933 33.7231 20.8174 33.7765 20.8425C33.7806 20.8445 33.7841 20.8465 33.7881 20.8479C33.8376 20.8716 33.8865 20.8962 33.9354 20.9218C33.9526 20.9311 33.9697 20.941 33.9874 20.9508C34.0217 20.9695 34.056 20.9882 34.0893 21.0079C34.1095 21.0197 34.1291 21.032 34.1488 21.0438C34.1791 21.0625 34.2098 21.0812 34.2396 21.1009C34.2598 21.1142 34.2799 21.1279 34.3001 21.1412C34.3289 21.1609 34.3571 21.1801 34.3849 21.2003C34.405 21.2146 34.4252 21.2293 34.4449 21.2441C34.4721 21.2647 34.4994 21.2854 34.5261 21.3066L34.5836 21.3523C34.6103 21.3745 34.6366 21.3966 34.6628 21.4193C34.681 21.435 34.6991 21.4508 34.7168 21.4665C34.7435 21.4906 34.7697 21.5152 34.7955 21.5398C34.8116 21.5551 34.8282 21.5703 34.8444 21.5861C34.8731 21.6146 34.9009 21.6437 34.9286 21.6727C34.9412 21.6855 34.9538 21.6978 34.966 21.7111C35.0053 21.7534 35.0441 21.7967 35.0815 21.841C35.0865 21.8469 35.091 21.8528 35.0956 21.8587C35.1279 21.8976 35.1596 21.9364 35.1909 21.9768C35.203 21.9925 35.2146 22.0088 35.2262 22.025C35.2494 22.0555 35.2721 22.086 35.2938 22.117C35.3069 22.1357 35.3195 22.1549 35.3327 22.1741C35.3523 22.2037 35.3715 22.2327 35.3907 22.2622C35.4033 22.2829 35.4159 22.3035 35.4285 22.3242C35.4462 22.3533 35.4638 22.3828 35.4805 22.4123C35.4926 22.434 35.5047 22.4556 35.5163 22.4773C35.5324 22.5068 35.5486 22.5373 35.5637 22.5673C35.5753 22.5895 35.5859 22.6111 35.597 22.6333C35.6121 22.6647 35.6262 22.6957 35.6404 22.7277C35.6504 22.7494 35.6605 22.771 35.6696 22.7932C35.6842 22.8266 35.6974 22.8606 35.7105 22.8946C35.719 22.9152 35.7271 22.9359 35.7352 22.9566C35.7493 22.9954 35.7629 23.0348 35.776 23.0742C35.7816 23.0909 35.7876 23.1071 35.7927 23.1234C35.8103 23.1795 35.827 23.2361 35.8421 23.2936C35.8451 23.3035 35.8472 23.3133 35.8497 23.3232C35.8618 23.3709 35.8734 23.4186 35.8835 23.4669C35.888 23.4875 35.8916 23.5082 35.8956 23.5289C35.9016 23.5594 35.9082 23.5894 35.9132 23.6204H38.5059C38.6346 23.6204 38.739 23.5185 38.739 23.393V20.8155H37.7554V19.5852H38.739V18.0046C38.739 17.2596 38.281 16.5997 37.5723 16.3232L35.2126 15.4025H26.2799V23.6204ZM26.2799 14.1722H34.3798L32.1069 8.97526C31.8532 8.39557 31.2721 8.02109 30.626 8.02109H26.2799V14.1722ZM10.3153 26.7698C11.7478 26.7698 12.913 25.633 12.913 24.2355C12.913 22.838 11.7478 21.7012 10.3153 21.7012C10.2704 21.7012 10.226 21.7022 10.1816 21.7047C8.98815 21.7637 8.00454 22.6131 7.77049 23.7252C7.76192 23.7665 7.75385 23.8084 7.74729 23.8502C7.73418 23.9338 7.7256 24.019 7.72106 24.1051C7.71854 24.1484 7.71753 24.1917 7.71753 24.2355C7.71753 25.633 8.88272 26.7698 10.3153 26.7698ZM1.26103 19.5852H2.24464V20.8155H1.26103V23.5549C1.26103 23.5909 1.2913 23.6204 1.32812 23.6204H6.50795C6.51299 23.5899 6.51955 23.5599 6.5256 23.5298C6.52963 23.5087 6.53316 23.4875 6.5377 23.4664C6.54779 23.4191 6.55889 23.3724 6.571 23.3261C6.57402 23.3153 6.57604 23.304 6.57907 23.2931C6.5942 23.2361 6.61084 23.18 6.6285 23.1239C6.63404 23.1066 6.6401 23.0894 6.64565 23.0727C6.65876 23.0338 6.67188 22.9949 6.686 22.957C6.69407 22.9354 6.70265 22.9147 6.71072 22.8936C6.72383 22.8601 6.73745 22.8266 6.75107 22.7937C6.76066 22.771 6.77074 22.7489 6.78083 22.7268C6.79496 22.6957 6.80908 22.6647 6.82421 22.6337C6.8348 22.6111 6.84641 22.589 6.8575 22.5668C6.87263 22.5368 6.88827 22.5073 6.90442 22.4773C6.91652 22.4556 6.92862 22.434 6.94073 22.4123C6.95788 22.3828 6.97503 22.3537 6.99269 22.3247C7.00529 22.3036 7.01791 22.2829 7.03102 22.2622C7.04969 22.2327 7.06886 22.2037 7.08853 22.1751C7.10114 22.1554 7.11425 22.1357 7.12737 22.117C7.14906 22.086 7.17175 22.056 7.19395 22.026C7.20605 22.0093 7.21816 21.9925 7.23077 21.9763C7.26103 21.9374 7.29181 21.8991 7.32358 21.8612C7.32913 21.8543 7.33418 21.8474 7.33972 21.841C7.37756 21.7967 7.41589 21.7534 7.45523 21.7111C7.46784 21.6978 7.48045 21.685 7.49306 21.6717C7.52081 21.6427 7.54855 21.6141 7.5768 21.5861C7.59294 21.5703 7.60958 21.5551 7.62623 21.5393C7.65195 21.5147 7.67768 21.4906 7.70441 21.4665C7.72207 21.4508 7.74073 21.435 7.75889 21.4188C7.78461 21.3966 7.81084 21.3745 7.83758 21.3528C7.85675 21.3371 7.87592 21.3213 7.89559 21.3061C7.92182 21.2854 7.94905 21.2647 7.97629 21.2441C7.99596 21.2293 8.01614 21.2146 8.03632 21.2003C8.06406 21.1801 8.09231 21.1609 8.12055 21.1417C8.14124 21.1279 8.16141 21.1142 8.18159 21.1009C8.21135 21.0812 8.24161 21.0625 8.27188 21.0443C8.29206 21.032 8.31173 21.0197 8.3319 21.0079C8.36519 20.9882 8.39899 20.9695 8.43329 20.9508C8.45095 20.941 8.4681 20.9311 8.48625 20.9218C8.53417 20.8962 8.5826 20.8721 8.63203 20.8489C8.63607 20.847 8.6401 20.8445 8.64464 20.8425C8.69811 20.8174 8.75258 20.7933 8.80706 20.7707C8.82471 20.7633 8.84287 20.7569 8.86053 20.7495C8.89836 20.7348 8.93569 20.72 8.97402 20.7057C8.99571 20.6979 9.0179 20.691 9.0401 20.6831C9.0744 20.6713 9.10921 20.6595 9.14451 20.6486C9.16822 20.6413 9.19243 20.6344 9.21614 20.6275C9.25044 20.6176 9.28474 20.6078 9.31904 20.5989C9.34376 20.5925 9.36847 20.5862 9.39369 20.5802C9.42799 20.5719 9.4623 20.5645 9.4971 20.5571C9.52232 20.5517 9.54754 20.5463 9.57327 20.5414C9.60857 20.535 9.64388 20.5286 9.6797 20.5232C9.70492 20.5187 9.72964 20.5148 9.75536 20.5114C9.79218 20.5059 9.82951 20.5015 9.86734 20.4971C9.89105 20.4946 9.91526 20.4912 9.93947 20.4892C9.98083 20.4853 10.0227 20.4823 10.0646 20.4799C10.0852 20.4784 10.1054 20.4764 10.1261 20.4759C10.1892 20.4725 10.2517 20.471 10.3153 20.471C10.3788 20.471 10.4414 20.4725 10.5044 20.4759C10.5251 20.4764 10.5453 20.4784 10.566 20.4799C10.6078 20.4823 10.6497 20.4853 10.691 20.4892C10.7153 20.4912 10.7395 20.4946 10.7632 20.4971C10.801 20.5015 10.8383 20.5059 10.8752 20.5114C10.9009 20.5148 10.9256 20.5187 10.9508 20.5232C10.9866 20.5286 11.0219 20.535 11.0573 20.5414C11.083 20.5463 11.1082 20.5517 11.1334 20.5571C11.1682 20.5645 11.2025 20.5719 11.2368 20.5802C11.262 20.5862 11.2868 20.5925 11.3115 20.5989C11.3458 20.6078 11.3801 20.6176 11.4144 20.6275C11.4381 20.6344 11.4623 20.6413 11.486 20.6486C11.5213 20.6595 11.5561 20.6713 11.5904 20.6831C11.6126 20.691 11.6348 20.6979 11.6565 20.7057C11.6948 20.72 11.7322 20.7348 11.77 20.7495C11.7876 20.7569 11.8058 20.7633 11.8235 20.7707C11.8779 20.7933 11.9324 20.8174 11.9859 20.8425C11.9904 20.8445 11.9945 20.8465 11.9985 20.8489C12.0479 20.8721 12.0963 20.8962 12.1443 20.9218C12.1624 20.9311 12.1796 20.941 12.1972 20.9508C12.231 20.9695 12.2653 20.9882 12.2986 21.0079C12.3188 21.0197 12.3385 21.032 12.3586 21.0443C12.3889 21.0625 12.4192 21.0812 12.4489 21.1009C12.4691 21.1142 12.4893 21.1279 12.51 21.1417C12.5382 21.1609 12.5665 21.1801 12.5942 21.2003C12.6144 21.2146 12.6346 21.2293 12.6542 21.2441C12.6815 21.2647 12.7087 21.2854 12.7349 21.3061C12.7546 21.3213 12.7738 21.3371 12.7929 21.3528C12.8197 21.3745 12.8459 21.3966 12.8716 21.4193C12.8898 21.435 12.9084 21.4508 12.9261 21.4665C12.9528 21.4906 12.9786 21.5152 13.0048 21.5398C13.0209 21.5551 13.0376 21.5703 13.0537 21.5861C13.082 21.6141 13.1102 21.6432 13.138 21.6722C13.1501 21.685 13.1632 21.6978 13.1753 21.7111C13.2146 21.7534 13.253 21.7967 13.2908 21.841C13.2958 21.8474 13.3009 21.8538 13.3059 21.8597C13.3377 21.8981 13.3695 21.9369 13.3997 21.9768C13.4124 21.9925 13.424 22.0088 13.4361 22.025C13.4588 22.0555 13.4815 22.086 13.5032 22.117C13.5163 22.1357 13.5289 22.1554 13.542 22.1746C13.5617 22.2037 13.5808 22.2327 13.5995 22.2622C13.6126 22.2829 13.6252 22.3035 13.6378 22.3242C13.6555 22.3533 13.6731 22.3828 13.6898 22.4123C13.7019 22.434 13.714 22.4556 13.7256 22.4773C13.7422 22.5068 13.7579 22.5373 13.7735 22.5673C13.7846 22.5895 13.7952 22.6111 13.8063 22.6333C13.8214 22.6647 13.8356 22.6962 13.8497 22.7277C13.8598 22.7494 13.8699 22.771 13.8789 22.7932C13.8936 22.8266 13.9067 22.8606 13.9203 22.8946C13.9284 22.9152 13.9364 22.9359 13.9445 22.9566C13.9591 22.9959 13.9723 23.0353 13.9854 23.0751C13.9909 23.0914 13.997 23.1071 14.002 23.1234C14.0197 23.1795 14.0363 23.2366 14.052 23.2936C14.054 23.3025 14.056 23.3118 14.058 23.3207C14.0706 23.3694 14.0822 23.4181 14.0928 23.4673C14.0974 23.487 14.1009 23.5072 14.1044 23.5274C14.1105 23.5584 14.117 23.5889 14.1226 23.6204H25.0189V5.33919C25.0189 4.99965 25.3014 4.72408 25.6494 4.72408H34.7657C34.7813 4.72408 34.8293 4.72408 34.859 4.66946C34.8888 4.61533 34.8625 4.57645 34.8535 4.56415L32.8807 1.67656C32.6895 1.39705 32.3702 1.23023 32.0257 1.23023H15.5612C15.4694 1.23023 15.3831 1.26517 15.318 1.32865L14.2749 2.34629C13.9718 2.64204 13.5687 2.80492 13.14 2.80492H2.28197C1.71904 2.80492 1.26103 3.25174 1.26103 3.80091V19.5852Z">
            </path>
            <path
                d="M17.6013 6.2981H21.5897C22.3953 6.2981 23.051 6.93732 23.051 7.72368V20.8886C23.051 21.2281 22.7686 21.5037 22.4205 21.5037H16.7711C16.423 21.5037 16.1406 21.2281 16.1406 20.8886V7.72368C16.1401 6.93732 16.7953 6.2981 17.6013 6.2981ZM17.4011 20.2735H21.7895V13.0397H17.4011V20.2735ZM17.4011 11.8095H21.7895V7.72368C21.7895 7.61592 21.6997 7.52832 21.5892 7.52832H17.6008C17.4904 7.52832 17.4006 7.61592 17.4006 7.72368V11.8095H17.4011ZM4.84371 6.2981H12.5562C13.4475 6.2981 14.1728 7.00572 14.1728 7.87525V11.4631C14.1728 12.3326 13.4475 13.0402 12.5562 13.0402H4.8432C3.9519 13.0402 3.22656 12.3326 3.22656 11.4631V7.87525C3.22706 7.00572 3.95241 6.2981 4.84371 6.2981ZM4.4881 11.4626C4.4881 11.6535 4.64749 11.8095 4.84371 11.8095H12.5562C12.7524 11.8095 12.9118 11.654 12.9118 11.4626V7.87476C12.9118 7.68382 12.7524 7.52783 12.5562 7.52783H4.8432C4.64699 7.52783 4.48759 7.68333 4.48759 7.87476V11.4626H4.4881Z">
            </path>
        </symbol>
        <symbol id="shower" width="24" height="24" viewBox="0 0 24 24">
            <path
                d="M0.626145 0.626222C1.01667 0.235697 1.64983 0.235697 2.04036 0.626221L4.76019 3.34605C6.06868 2.34419 7.67596 1.78898 9.34201 1.78057C11.0113 1.77214 12.627 2.31316 13.947 3.30538L15.2928 1.95955C15.6833 1.56903 16.3165 1.56903 16.707 1.95955C17.0976 2.35008 17.0976 2.98324 16.707 3.37377L14.708 5.37277C14.7073 5.37354 14.7065 5.3743 14.7057 5.37506L5.37504 14.7058C5.37424 14.7066 5.37344 14.7074 5.37264 14.7081L3.37369 16.7071C2.98317 17.0976 2.35 17.0976 1.95948 16.7071C1.56895 16.3166 1.56895 15.6834 1.95948 15.2929L3.30531 13.9471C2.31309 12.6271 1.77206 11.0113 1.78049 9.34208C1.7889 7.67603 2.34411 6.06875 3.34598 4.76027L0.626145 2.04044C0.235621 1.64991 0.235621 1.01675 0.626145 0.626222ZM4.73883 12.5135L12.5135 4.7389C11.5865 4.11318 10.486 3.77481 9.35211 3.78054C7.87671 3.78799 6.46387 4.3774 5.42059 5.42067C4.37732 6.46395 3.78792 7.87679 3.78046 9.35219C3.77474 10.4861 4.1131 11.5865 4.73883 12.5135ZM17.3333 8.33333C17.8855 8.33333 18.3333 8.78104 18.3333 9.33333V9.34666C18.3333 9.89895 17.8855 10.3467 17.3333 10.3467C16.781 10.3467 16.3333 9.89895 16.3333 9.34666V9.33333C16.3333 8.78104 16.781 8.33333 17.3333 8.33333ZM22.6666 9.66666C23.2189 9.66666 23.6666 10.1144 23.6666 10.6667V10.68C23.6666 11.2323 23.2189 11.68 22.6666 11.68C22.1143 11.68 21.6666 11.2323 21.6666 10.68V10.6667C21.6666 10.1144 22.1143 9.66666 22.6666 9.66666ZM13.3333 12.3333C13.8855 12.3333 14.3333 12.781 14.3333 13.3333V13.3467C14.3333 13.8989 13.8855 14.3467 13.3333 14.3467C12.781 14.3467 12.3333 13.8989 12.3333 13.3467V13.3333C12.3333 12.781 12.781 12.3333 13.3333 12.3333ZM18.6666 13.6667C19.2189 13.6667 19.6666 14.1144 19.6666 14.6667V14.68C19.6666 15.2323 19.2189 15.68 18.6666 15.68C18.1143 15.68 17.6666 15.2323 17.6666 14.68V14.6667C17.6666 14.1144 18.1143 13.6667 18.6666 13.6667ZM9.33325 16.3333C9.88554 16.3333 10.3333 16.781 10.3333 17.3333V17.3467C10.3333 17.8989 9.88554 18.3467 9.33325 18.3467C8.78097 18.3467 8.33325 17.8989 8.33325 17.3467V17.3333C8.33325 16.781 8.78097 16.3333 9.33325 16.3333ZM14.6666 17.6667C15.2189 17.6667 15.6666 18.1144 15.6666 18.6667V18.68C15.6666 19.2323 15.2189 19.68 14.6666 19.68C14.1143 19.68 13.6666 19.2323 13.6666 18.68V18.6667C13.6666 18.1144 14.1143 17.6667 14.6666 17.6667ZM10.6666 21.6667C11.2189 21.6667 11.6666 22.1144 11.6666 22.6667V22.68C11.6666 23.2323 11.2189 23.68 10.6666 23.68C10.1143 23.68 9.66659 23.2323 9.66659 22.68V22.6667C9.66659 22.1144 10.1143 21.6667 10.6666 21.6667Z" />
        </symbol>
        <symbol xmlns="http://www.w3.org/2000/svg" viewBox="0 0 26 30" id="tv">
            <path
                d="M5.0001 7.90001C3.28115 7.90001 1.9001 9.28106 1.9001 11V21C1.9001 22.7189 3.28115 24.1 5.0001 24.1H21.0001C22.719 24.1 24.1001 22.7189 24.1001 21V11C24.1001 9.28106 22.719 7.90001 21.0001 7.90001H5.0001ZM0.100098 11C0.100098 8.28695 2.28704 6.10001 5.0001 6.10001H21.0001C23.7132 6.10001 25.9001 8.28695 25.9001 11V21C25.9001 23.7131 23.7132 25.9 21.0001 25.9H5.0001C2.28704 25.9 0.100098 23.7131 0.100098 21V11Z">
            </path>
            <path
                d="M8.1001 29C8.1001 28.5029 8.50304 28.1 9.0001 28.1H17.0001C17.4972 28.1 17.9001 28.5029 17.9001 29C17.9001 29.4971 17.4972 29.9 17.0001 29.9H9.0001C8.50304 29.9 8.1001 29.4971 8.1001 29Z">
            </path>
            <path
                d="M19.6365 0.36361C19.988 0.715082 19.988 1.28493 19.6365 1.6364L13.6365 7.6364C13.285 7.98787 12.7152 7.98787 12.3637 7.6364C12.0122 7.28493 12.0122 6.71508 12.3637 6.36361L18.3637 0.36361C18.7152 0.0121381 19.285 0.0121381 19.6365 0.36361Z">
            </path>
            <path
                d="M6.3637 0.36361C6.71517 0.0121381 7.28502 0.0121381 7.63649 0.36361L13.6365 6.36361C13.988 6.71508 13.988 7.28493 13.6365 7.6364C13.285 7.98787 12.7152 7.98787 12.3637 7.6364L6.3637 1.6364C6.01223 1.28493 6.01223 0.715082 6.3637 0.36361Z">
            </path>
        </symbol>
        <symbol id="calendar" width="20" height="20" viewBox="0 0 20 20" fill="none">
            <path fill-rule="evenodd" clip-rule="evenodd"
                d="M4.16667 4.08333C3.66041 4.08333 3.25 4.49373 3.25 4.99999V16.6667C3.25 17.1729 3.66041 17.5833 4.16667 17.5833H15.8333C16.3396 17.5833 16.75 17.1729 16.75 16.6667V4.99999C16.75 4.49373 16.3396 4.08333 15.8333 4.08333H4.16667ZM1.75 4.99999C1.75 3.66531 2.83198 2.58333 4.16667 2.58333H15.8333C17.168 2.58333 18.25 3.66531 18.25 4.99999V16.6667C18.25 18.0013 17.168 19.0833 15.8333 19.0833H4.16667C2.83198 19.0833 1.75 18.0013 1.75 16.6667V4.99999Z" />
            <path fill-rule="evenodd" clip-rule="evenodd"
                d="M13.3333 0.916672C13.7475 0.916672 14.0833 1.25246 14.0833 1.66667V5C14.0833 5.41422 13.7475 5.75 13.3333 5.75C12.919 5.75 12.5833 5.41422 12.5833 5V1.66667C12.5833 1.25246 12.919 0.916672 13.3333 0.916672Z" />
            <path fill-rule="evenodd" clip-rule="evenodd"
                d="M6.66675 0.916672C7.08096 0.916672 7.41675 1.25246 7.41675 1.66667V5C7.41675 5.41422 7.08096 5.75 6.66675 5.75C6.25253 5.75 5.91675 5.41422 5.91675 5V1.66667C5.91675 1.25246 6.25253 0.916672 6.66675 0.916672Z" />
            <path fill-rule="evenodd" clip-rule="evenodd"
                d="M1.75 8.33333C1.75 7.91911 2.08579 7.58333 2.5 7.58333H17.5C17.9142 7.58333 18.25 7.91911 18.25 8.33333C18.25 8.74754 17.9142 9.08333 17.5 9.08333H2.5C2.08579 9.08333 1.75 8.74754 1.75 8.33333Z" />
        </symbol>
        <symbol id="ac" width="20" height="16" viewBox="0 0 20 16" fill="none">
            <path
                d="M9.69 0C8.7518 0.000205607 7.84263 0.320331 7.11706 0.905952C6.39148 1.49157 5.89429 2.30654 5.71 3.21231L5.6375 3.57169C5.61823 3.65208 5.61559 3.73546 5.62974 3.81688C5.64389 3.89829 5.67454 3.97606 5.71986 4.04556C5.76519 4.11507 5.82426 4.17487 5.89355 4.22142C5.96285 4.26797 6.04095 4.30031 6.12321 4.31651C6.20547 4.3327 6.29019 4.33243 6.37234 4.31571C6.45449 4.29898 6.53238 4.26614 6.60137 4.21915C6.67035 4.17216 6.72903 4.11198 6.77389 4.04219C6.81875 3.97239 6.84889 3.89442 6.8625 3.81292L6.93625 3.45477C7.0748 2.7832 7.46155 2.18615 8.02159 1.77926C8.58162 1.37237 9.27509 1.1846 9.96769 1.25232C10.6603 1.32004 11.3027 1.63843 11.7705 2.14581C12.2384 2.6532 12.4983 3.31348 12.5 3.99877C12.5 4.73333 12.2037 5.43782 11.6763 5.95735C11.1489 6.47687 10.4335 6.7689 9.6875 6.76923H0.625C0.45924 6.76923 0.300269 6.83407 0.183058 6.94947C0.0658481 7.06488 0 7.22141 0 7.38462C0 7.54783 0.0658481 7.70435 0.183058 7.81976C0.300269 7.93517 0.45924 8 0.625 8H9.6875C10.7475 7.97443 11.7554 7.54194 12.496 6.79485C13.2367 6.04775 13.6514 5.04521 13.6517 4.0012C13.652 2.95719 13.2379 1.9544 12.4978 1.20686C11.7576 0.459308 10.75 0.0262118 9.69 0ZM16.875 5.53846C16.0462 5.53846 15.2513 5.86264 14.6653 6.43967C14.0792 7.01671 13.75 7.79933 13.75 8.61539C13.75 8.77859 13.8158 8.93512 13.9331 9.05053C14.0503 9.16594 14.2092 9.23077 14.375 9.23077C14.5408 9.23077 14.6997 9.16594 14.8169 9.05053C14.9342 8.93512 15 8.77859 15 8.61539C15 8.25025 15.11 7.89332 15.316 7.58972C15.522 7.28612 15.8149 7.04949 16.1575 6.90976C16.5001 6.77003 16.8771 6.73347 17.2408 6.8047C17.6045 6.87594 17.9386 7.05177 18.2008 7.30996C18.463 7.56815 18.6416 7.8971 18.714 8.25522C18.7863 8.61334 18.7492 8.98454 18.6073 9.32188C18.4654 9.65922 18.225 9.94755 17.9167 10.1504C17.6084 10.3533 17.2458 10.4615 16.875 10.4615H0.625C0.45924 10.4615 0.300269 10.5264 0.183058 10.6418C0.0658481 10.7572 0 10.9137 0 11.0769C0 11.2401 0.0658481 11.3967 0.183058 11.5121C0.300269 11.6275 0.45924 11.6923 0.625 11.6923H12.8125C13.2269 11.6931 13.624 11.856 13.9164 12.1451C14.2089 12.4342 14.3727 12.8258 14.3719 13.2338C14.371 13.6419 14.2056 14.0329 13.912 14.3208C13.6184 14.6087 13.2207 14.77 12.8062 14.7692C12.433 14.7695 12.0716 14.6396 11.7863 14.4026C11.501 14.1656 11.3101 13.8368 11.2475 13.4745L11.2413 13.4375C11.23 13.3559 11.2023 13.2773 11.1596 13.2065C11.117 13.1356 11.0603 13.0739 10.993 13.025C10.9257 12.9761 10.849 12.941 10.7677 12.9218C10.6863 12.9025 10.6019 12.8996 10.5194 12.9131C10.4368 12.9266 10.3579 12.9563 10.2872 13.0004C10.2166 13.0445 10.1556 13.1022 10.108 13.1699C10.0604 13.2376 10.0271 13.3141 10.01 13.3947C9.99298 13.4754 9.99254 13.5586 10.0087 13.6394L10.015 13.6763C10.1261 14.326 10.4675 14.916 10.9785 15.3414C11.4895 15.7668 12.1371 16.0001 12.8062 16C13.5528 16.0003 14.2691 15.7089 14.7976 15.1896C15.3261 14.6704 15.6237 13.9659 15.625 13.2308C15.625 12.6609 15.45 12.1317 15.1513 11.6923H16.875C17.7038 11.6923 18.4987 11.3681 19.0847 10.7911C19.6708 10.2141 20 9.43144 20 8.61539C20 7.79933 19.6708 7.01671 19.0847 6.43967C18.4987 5.86264 17.7038 5.53846 16.875 5.53846Z" />
        </symbol>
        <symbol id="bed" width="20" height="20" viewBox="0 0 20 20">
            <path
                d="M5.31046 3.05001L5.31255 3.05L14.6896 3.05001C15.2886 3.0518 15.8625 3.29052 16.286 3.71404C16.7095 4.13756 16.9483 4.71147 16.95 5.31042L16.9501 5.31251L16.95 8.96484C17.2949 9.12234 17.6124 9.3412 17.8856 9.61443C18.4848 10.2136 18.8225 11.0256 18.825 11.8729L18.8251 11.875L18.8251 16.25C18.8251 16.6366 18.5116 16.95 18.125 16.95C17.7385 16.95 17.425 16.6366 17.425 16.25V11.8762C17.4234 11.399 17.2331 10.9418 16.8957 10.6044C16.5582 10.2669 16.1011 10.0767 15.6239 10.075H4.37622C3.89904 10.0767 3.44186 10.2669 3.10442 10.6044C2.76699 10.9418 2.57671 11.399 2.57505 11.8761V16.25C2.57505 16.6366 2.26165 16.95 1.87505 16.95C1.48845 16.95 1.17505 16.6366 1.17505 16.25V11.875L1.17505 11.8729C1.17756 11.0256 1.51528 10.2136 2.11447 9.61443C2.38769 9.3412 2.70516 9.12234 3.05005 8.96484V5.31042C3.05184 4.71147 3.29056 4.13756 3.71409 3.71404C4.13761 3.29052 4.71151 3.0518 5.31046 3.05001ZM15.55 8.67501V5.31377C15.5491 5.08497 15.4579 4.86579 15.2961 4.70399C15.1343 4.54221 14.9151 4.45092 14.6863 4.45001H5.31375C5.08498 4.45092 4.86582 4.54221 4.70404 4.70399C4.54225 4.86578 4.45097 5.08494 4.45005 5.31371V8.67501H15.55Z" />
            <path
                d="M5.62309 6.80001L5.62505 6.8L8.75201 6.80001C9.2102 6.80129 9.65141 6.9635 10 7.2552C10.3487 6.9635 10.7899 6.80129 11.2481 6.80001L11.25 6.8L14.377 6.80001C14.8932 6.80145 15.3879 7.00716 15.7529 7.37217C16.1179 7.73719 16.3236 8.23184 16.325 8.74805L16.3251 8.75001L16.325 9.37501C16.325 9.76161 16.0116 10.075 15.625 10.075C15.2384 10.075 14.925 9.76161 14.925 9.37501V8.75116C14.9244 8.60518 14.8662 8.46535 14.7629 8.36212C14.6597 8.25888 14.5199 8.20062 14.3739 8.20001H11.2512C11.1052 8.20062 10.9654 8.25888 10.8622 8.36212C10.7589 8.46535 10.7007 8.60518 10.7 8.75116V9.37501C10.7 9.76161 10.3866 10.075 10 10.075C9.61345 10.075 9.30005 9.76161 9.30005 9.37501V8.75127C9.29946 8.60526 9.24119 8.46538 9.13793 8.36212C9.03469 8.25888 8.89485 8.20062 8.74887 8.20001H5.62623C5.48025 8.20062 5.34041 8.25888 5.23716 8.36212C5.13393 8.46536 5.07567 8.60519 5.07505 8.75116V9.37501C5.07505 9.76161 4.76165 10.075 4.37505 10.075C3.98845 10.075 3.67505 9.76161 3.67505 9.37501V8.74805C3.67649 8.23184 3.8822 7.73719 4.24722 7.37217C4.61223 7.00716 5.10688 6.80145 5.62309 6.80001ZM2.81052 14.3L2.81255 14.3L17.1896 14.3C17.6229 14.3013 18.0382 14.474 18.3446 14.7804C18.6511 15.0869 18.8238 15.5021 18.825 15.9355L18.8251 15.9375L18.8251 16.25C18.8251 16.6366 18.5116 16.95 18.125 16.95C17.7385 16.95 17.425 16.6366 17.425 16.25V15.9389C17.4247 15.8756 17.3994 15.8151 17.3547 15.7704C17.31 15.7256 17.2494 15.7004 17.1862 15.7H2.81391C2.75068 15.7004 2.69013 15.7256 2.64541 15.7704C2.60069 15.8151 2.57541 15.8756 2.57505 15.9389V16.25C2.57505 16.6366 2.26165 16.95 1.87505 16.95C1.48845 16.95 1.17505 16.6366 1.17505 16.25V15.9375L1.17505 15.9355C1.17631 15.5021 1.34902 15.0869 1.65546 14.7804C1.9619 14.474 2.37715 14.3013 2.81052 14.3Z" />
        </symbol>
        <symbol id="sth" width="20" height="20" viewBox="0 0 20 20" fill="none">
            <g clip-path="url(#clip0_18_11576)">
                <path fill-rule="evenodd" clip-rule="evenodd"
                    d="M4.16659 2.49999C3.24611 2.49999 2.49992 3.24619 2.49992 4.16666C2.49992 5.08714 3.24611 5.83333 4.16659 5.83333C5.08706 5.83333 5.83325 5.08714 5.83325 4.16666C5.83325 3.24619 5.08706 2.49999 4.16659 2.49999ZM0.833252 4.16666C0.833252 2.32571 2.32564 0.833328 4.16659 0.833328C6.00753 0.833328 7.49992 2.32571 7.49992 4.16666C7.49992 6.00761 6.00753 7.49999 4.16659 7.49999C2.32564 7.49999 0.833252 6.00761 0.833252 4.16666Z" />
                <path fill-rule="evenodd" clip-rule="evenodd"
                    d="M15.8333 14.1667C14.9129 14.1667 14.1667 14.9129 14.1667 15.8333C14.1667 16.7538 14.9129 17.5 15.8333 17.5C16.7538 17.5 17.5 16.7538 17.5 15.8333C17.5 14.9129 16.7538 14.1667 15.8333 14.1667ZM12.5 15.8333C12.5 13.9924 13.9924 12.5 15.8333 12.5C17.6743 12.5 19.1667 13.9924 19.1667 15.8333C19.1667 17.6743 17.6743 19.1667 15.8333 19.1667C13.9924 19.1667 12.5 17.6743 12.5 15.8333Z" />
                <path fill-rule="evenodd" clip-rule="evenodd"
                    d="M8.33338 4.16666C8.33338 3.70642 8.70647 3.33333 9.16671 3.33333H14.4167C16.9981 3.33333 17.9289 6.71051 15.6587 7.97624L5.9881 13.4785C5.2633 13.8812 5.49965 15 6.41671 15H10.8334C11.2936 15 11.6667 15.3731 11.6667 15.8333C11.6667 16.2936 11.2936 16.6667 10.8334 16.6667H6.41671C3.83529 16.6667 2.90456 13.2895 5.17466 12.0238L14.8453 6.52149C15.5701 6.11883 15.3338 4.99999 14.4167 4.99999H9.16671C8.70647 4.99999 8.33338 4.6269 8.33338 4.16666Z" />
            </g>
            <defs>
                <clipPath>
                    <rect width="20" height="20" />
                </clipPath>
            </defs>
        </symbol>
        <symbol id="kitchen" width="20" height="20" viewBox="0 0 20 20">
            <path
                d="M16.1286 1.81053C16.4045 1.92864 16.5834 2.19987 16.5834 2.5V17.5C16.5834 17.9142 16.2476 18.25 15.8334 18.25H15.0001C14.5859 18.25 14.2501 17.9142 14.2501 17.5V15C14.2501 14.5858 14.5859 14.25 15.0001 14.25C15.0282 14.25 15.0561 14.2516 15.0834 14.2546V13.25H11.6667C11.2544 13.25 10.9193 12.9171 10.9168 12.5047C10.9071 10.9607 10.9423 9.31208 11.5259 7.54956C12.1132 5.77609 13.2356 3.94155 15.3157 1.95731C15.5329 1.75015 15.8527 1.69241 16.1286 1.81053ZM15.0834 11.75V4.37624C13.9658 5.68784 13.3241 6.89098 12.9499 8.02107C12.5311 9.2857 12.4333 10.4971 12.418 11.75H15.0834ZM4.16675 2.58334C4.58096 2.58334 4.91675 2.91912 4.91675 3.33334V5.83334C4.91675 6.29746 5.10112 6.74258 5.42931 7.07077C5.57229 7.21376 5.73747 7.32944 5.91675 7.41448V3.33334C5.91675 2.91912 6.25253 2.58334 6.66675 2.58334C7.08096 2.58334 7.41675 2.91912 7.41675 3.33334V7.41448C7.59602 7.32944 7.7612 7.21376 7.90419 7.07077C8.23237 6.74258 8.41675 6.29747 8.41675 5.83334V3.33334C8.41675 2.91912 8.75253 2.58334 9.16675 2.58334C9.58096 2.58334 9.91675 2.91912 9.91675 3.33334V5.83334C9.91675 6.69529 9.57434 7.52194 8.96485 8.13143C8.53541 8.56087 7.99818 8.85771 7.41675 8.99562V17.5C7.41675 17.9142 7.08096 18.25 6.66675 18.25C6.25253 18.25 5.91675 17.9142 5.91675 17.5V8.99562C5.33532 8.85771 4.79808 8.56087 4.36865 8.13143C3.75916 7.52194 3.41675 6.69529 3.41675 5.83334V3.33334C3.41675 2.91912 3.75253 2.58334 4.16675 2.58334Z" />
        </symbol>
        <symbol xmlns="http://www.w3.org/2000/svg" viewBox="0 0 20 20" id="airConditioner">
            <path
                d="M0.602322 0.602383C1.01088 0.193822 1.56501 -0.0357056 2.1428 -0.0357056H17.8571C18.4349 -0.0357056 18.989 0.193822 19.3976 0.602383C19.8061 1.01094 20.0357 1.56507 20.0357 2.14287V9.28572C20.0357 9.86352 19.8061 10.4176 19.3976 10.8262C18.989 11.2348 18.4349 11.4643 17.8571 11.4643H2.1428C1.56501 11.4643 1.01088 11.2348 0.602322 10.8262C0.193761 10.4176 -0.0357666 9.86352 -0.0357666 9.28572V2.14287C-0.0357666 1.56507 0.193761 1.01094 0.602322 0.602383ZM2.1428 1.46429C1.96284 1.46429 1.79024 1.53579 1.66298 1.66304C1.53573 1.7903 1.46423 1.9629 1.46423 2.14287V9.28572C1.46423 9.46569 1.53573 9.63829 1.66298 9.76555C1.79024 9.8928 1.96284 9.96429 2.1428 9.96429H17.8571C18.0371 9.96429 18.2097 9.8928 18.3369 9.76555C18.4642 9.63829 18.5357 9.46569 18.5357 9.28572V2.14287C18.5357 1.9629 18.4642 1.7903 18.3369 1.66304C18.2097 1.53579 18.0371 1.46429 17.8571 1.46429H2.1428Z">
            </path>
            <path
                d="M4.17379 6.31668C4.58235 5.90812 5.13647 5.67859 5.71427 5.67859H14.2857C14.8635 5.67859 15.4176 5.90812 15.8262 6.31668C16.2347 6.72524 16.4643 7.27937 16.4643 7.85716V10.7143C16.4643 11.1285 16.1285 11.4643 15.7143 11.4643C15.3001 11.4643 14.9643 11.1285 14.9643 10.7143V7.85716C14.9643 7.67719 14.8928 7.5046 14.7655 7.37734C14.6383 7.25008 14.4657 7.17859 14.2857 7.17859H5.71427C5.5343 7.17859 5.3617 7.25008 5.23445 7.37734C5.10719 7.50459 5.0357 7.67719 5.0357 7.85716V10.7143C5.0357 11.1285 4.69991 11.4643 4.2857 11.4643C3.87148 11.4643 3.5357 11.1285 3.5357 10.7143V7.85716C3.5357 7.27937 3.76522 6.72524 4.17379 6.31668ZM5.71427 13.5357C6.12848 13.5357 6.46427 13.8715 6.46427 14.2857V15.8572C6.46427 16.5865 6.17454 17.286 5.65881 17.8017C5.14309 18.3174 4.44361 18.6072 3.71427 18.6072H3.57141C3.1572 18.6072 2.82141 18.2714 2.82141 17.8572C2.82141 17.4429 3.1572 17.1072 3.57141 17.1072H3.71427C4.04579 17.1072 4.36373 16.9755 4.59815 16.741C4.83257 16.5066 4.96427 16.1887 4.96427 15.8572V14.2857C4.96427 13.8715 5.30005 13.5357 5.71427 13.5357ZM9.99998 13.5357C10.4142 13.5357 10.75 13.8715 10.75 14.2857V19.2857C10.75 19.6999 10.4142 20.0357 9.99998 20.0357C9.58577 20.0357 9.24998 19.6999 9.24998 19.2857V14.2857C9.24998 13.8715 9.58577 13.5357 9.99998 13.5357ZM14.2857 13.5357C14.6999 13.5357 15.0357 13.8715 15.0357 14.2857V15.8572C15.0357 16.1887 15.1674 16.5066 15.4018 16.741C15.6362 16.9755 15.9542 17.1072 16.2857 17.1072H16.4286C16.8428 17.1072 17.1786 17.4429 17.1786 17.8572C17.1786 18.2714 16.8428 18.6072 16.4286 18.6072H16.2857C15.5564 18.6072 14.8569 18.3174 14.3412 17.8017C13.8254 17.286 13.5357 16.5865 13.5357 15.8572V14.2857C13.5357 13.8715 13.8715 13.5357 14.2857 13.5357Z">
            </path>
        </symbol>
        <symbol xmlns="http://www.w3.org/2000/svg" viewBox="0 0 18 18" id="cd">
            <path
                d="M9 2.25C5.27208 2.25 2.25 5.27208 2.25 9C2.25 12.7279 5.27208 15.75 9 15.75C12.7279 15.75 15.75 12.7279 15.75 9C15.75 5.27208 12.7279 2.25 9 2.25ZM0.75 9C0.75 4.44365 4.44365 0.75 9 0.75C13.5563 0.75 17.25 4.44365 17.25 9C17.25 13.5563 13.5563 17.25 9 17.25C4.44365 17.25 0.75 13.5563 0.75 9Z">
            </path>
            <path
                d="M8.99996 5.16669C6.88292 5.16669 5.16663 6.88298 5.16663 9.00002C5.16663 9.41423 4.83084 9.75002 4.41663 9.75002C4.00241 9.75002 3.66663 9.41423 3.66663 9.00002C3.66663 6.05456 6.0545 3.66669 8.99996 3.66669C9.41417 3.66669 9.74996 4.00247 9.74996 4.41669C9.74996 4.8309 9.41417 5.16669 8.99996 5.16669Z">
            </path>
            <path
                d="M8.99996 7.66669C8.26358 7.66669 7.66663 8.26364 7.66663 9.00002C7.66663 9.7364 8.26358 10.3334 8.99996 10.3334C9.73634 10.3334 10.3333 9.7364 10.3333 9.00002C10.3333 8.26364 9.73634 7.66669 8.99996 7.66669ZM6.16663 9.00002C6.16663 7.43521 7.43515 6.16669 8.99996 6.16669C10.5648 6.16669 11.8333 7.43521 11.8333 9.00002C11.8333 10.5648 10.5648 11.8334 8.99996 11.8334C7.43515 11.8334 6.16663 10.5648 6.16663 9.00002Z">
            </path>
        </symbol>
        <symbol xmlns="http://www.w3.org/2000/svg" viewBox="0 0 18 18" id="radio">
            <path
                d="M3.76253 4.76632C2.92691 4.87871 2.45018 5.08885 2.10321 5.43613C1.75593 5.7831 1.5454 6.26022 1.43301 7.09585C1.31811 7.95016 1.31672 9.07707 1.31672 10.6667C1.31672 12.2563 1.31811 13.3833 1.43301 14.2376C1.54539 15.0732 1.75554 15.5499 2.10281 15.8969C2.44979 16.2442 2.92691 16.4547 3.76253 16.5671C4.61684 16.682 5.74376 16.6834 7.33339 16.6834H10.6667C12.2564 16.6834 13.3833 16.682 14.2376 16.5671C15.0732 16.4547 15.5499 16.2446 15.8969 15.8973C16.2442 15.5503 16.4547 15.0732 16.5671 14.2376C16.682 13.3833 16.6834 12.2563 16.6834 10.6667C16.6834 9.07707 16.682 7.95016 16.5671 7.09585C16.4547 6.26023 16.2446 5.7835 15.8973 5.43652C15.5503 5.08925 15.0732 4.87871 14.2376 4.76632C13.3833 4.65142 12.2564 4.65004 10.6667 4.65004H7.33339C5.74376 4.65004 4.61684 4.65142 3.76253 4.76632ZM7.28465 3.35004H10.7155C12.2454 3.35002 13.4598 3.35001 14.4109 3.47792C15.3907 3.6097 16.1877 3.88789 16.8165 4.51728C17.4457 5.14608 17.7238 5.94297 17.8555 6.92256C17.9834 7.87359 17.9834 9.08808 17.9834 10.618V10.7154C17.9834 12.2453 17.9834 13.4598 17.8555 14.4108C17.7237 15.3905 17.4456 16.1875 16.8163 16.8163C16.1875 17.4456 15.3906 17.7237 14.4109 17.8555C13.4598 17.9834 12.2454 17.9834 10.7155 17.9834H7.28463C5.75475 17.9834 4.54027 17.9834 3.58925 17.8555C2.60966 17.7237 1.81276 17.4456 1.18397 16.8165C0.554575 16.1877 0.276387 15.3906 0.144608 14.4108C0.0166983 13.4598 0.0167097 12.2453 0.0167239 10.7154V10.618C0.0167097 9.08807 0.0166983 7.87359 0.144608 6.92256C0.276373 5.94287 0.554517 5.14591 1.18377 4.51708C1.8126 3.88783 2.60955 3.60969 3.58925 3.47792C4.54028 3.35001 5.75475 3.35002 7.28465 3.35004Z">
            </path>
            <path
                d="M4.83339 7.15004C4.56375 7.15004 4.30516 7.25715 4.1145 7.44781C3.92384 7.63847 3.81672 7.89707 3.81672 8.1667C3.81672 8.43634 3.92384 8.69493 4.1145 8.88559C4.30516 9.07626 4.56375 9.18337 4.83339 9.18337H13.1667C13.4364 9.18337 13.695 9.07626 13.8856 8.88559C14.0763 8.69493 14.1834 8.43634 14.1834 8.1667C14.1834 7.89707 14.0763 7.63847 13.8856 7.44781C13.695 7.25715 13.4364 7.15004 13.1667 7.15004H4.83339ZM3.19526 6.52857C3.62972 6.09411 4.21897 5.85004 4.83339 5.85004H13.1667C13.7811 5.85004 14.3704 6.09411 14.8049 6.52857C15.2393 6.96303 15.4834 7.55228 15.4834 8.1667C15.4834 8.78112 15.2393 9.37037 14.8049 9.80483C14.3704 10.2393 13.7811 10.4834 13.1667 10.4834H4.83339C4.21897 10.4834 3.62972 10.2393 3.19526 9.80483C2.7608 9.37037 2.51672 8.78112 2.51672 8.1667C2.51672 7.55228 2.7608 6.96303 3.19526 6.52857ZM5.25006 12.5667C5.09093 12.5667 4.93831 12.6299 4.82579 12.7424C4.71327 12.855 4.65006 13.0076 4.65006 13.1667C4.65006 13.3258 4.71327 13.4784 4.82579 13.591C4.93832 13.7035 5.09093 13.7667 5.25006 13.7667C5.40919 13.7667 5.5618 13.7035 5.67432 13.591C5.78684 13.4784 5.85006 13.3258 5.85006 13.1667C5.85006 13.0076 5.78684 12.855 5.67432 12.7424C5.5618 12.6299 5.40919 12.5667 5.25006 12.5667ZM3.90655 11.8232C4.26287 11.4669 4.74615 11.2667 5.25006 11.2667C5.75397 11.2667 6.23724 11.4669 6.59356 11.8232C6.94988 12.1795 7.15006 12.6628 7.15006 13.1667C7.15006 13.6706 6.94988 14.1539 6.59356 14.5102C6.23724 14.8665 5.75397 15.0667 5.25006 15.0667C4.74615 15.0667 4.26287 14.8665 3.90655 14.5102C3.55023 14.1539 3.35006 13.6706 3.35006 13.1667C3.35006 12.6628 3.55023 12.1795 3.90655 11.8232Z">
            </path>
            <path
                d="M12.0882 0.389926C12.2411 0.714742 12.1017 1.10197 11.7769 1.25483L4.69352 4.58816C4.36871 4.74101 3.98148 4.60161 3.82862 4.2768C3.67577 3.95198 3.81517 3.56475 4.13999 3.4119L11.2233 0.078562C11.5481 -0.0742928 11.9354 0.0651096 12.0882 0.389926ZM11.5001 7.93336C11.8591 7.93336 12.1501 8.22438 12.1501 8.58336V9.83336C12.1501 10.1923 11.8591 10.4834 11.5001 10.4834C11.1411 10.4834 10.8501 10.1923 10.8501 9.83336V8.58336C10.8501 8.22438 11.1411 7.93336 11.5001 7.93336ZM9.18342 13.1667C9.18342 12.8077 9.47444 12.5167 9.83342 12.5167H14.0001C14.3591 12.5167 14.6501 12.8077 14.6501 13.1667C14.6501 13.5257 14.3591 13.8167 14.0001 13.8167H9.83342C9.47444 13.8167 9.18342 13.5257 9.18342 13.1667Z">
            </path>
        </symbol>
        <symbol xmlns="http://www.w3.org/2000/svg" viewBox="0 0 20 15" id="hob">
            <path
                d="M2.49996 1.91669C2.47786 1.91669 2.45666 1.92547 2.44103 1.94109C2.42541 1.95672 2.41663 1.97792 2.41663 2.00002V12.8334C2.41663 12.8555 2.42541 12.8767 2.44103 12.8923C2.45666 12.9079 2.47786 12.9167 2.49996 12.9167H6.74996V1.91669H2.49996ZM8.24996 1.91669V12.9167H17.5C17.5221 12.9167 17.5433 12.9079 17.5589 12.8923C17.5745 12.8767 17.5833 12.8555 17.5833 12.8334V2.00002C17.5833 1.97792 17.5745 1.95672 17.5589 1.94109C17.5433 1.92547 17.5221 1.91669 17.5 1.91669H8.24996ZM1.38037 0.880435C1.67731 0.583502 2.08003 0.416687 2.49996 0.416687H17.5C17.9199 0.416687 18.3226 0.583502 18.6195 0.880435C18.9165 1.17737 19.0833 1.5801 19.0833 2.00002V12.8334C19.0833 13.2533 18.9165 13.656 18.6195 13.9529C18.3226 14.2499 17.9199 14.4167 17.5 14.4167H2.49996C2.08003 14.4167 1.67731 14.2499 1.38037 13.9529C1.08344 13.656 0.916626 13.2533 0.916626 12.8334V2.00002C0.916626 1.58009 1.08344 1.17737 1.38037 0.880435Z">
            </path>
            <path
                d="M15.8491 3.05396C16.1875 3.29283 16.2682 3.7608 16.0293 4.0992L11.0293 11.1825C10.7904 11.5209 10.3225 11.6016 9.98407 11.3627C9.64567 11.1239 9.56499 10.6559 9.80386 10.3175L14.8039 3.23418C15.0427 2.89578 15.5107 2.81509 15.8491 3.05396ZM4.58325 3.33335C4.99747 3.33335 5.33325 3.66914 5.33325 4.08335V5.75002C5.33325 6.16423 4.99747 6.50002 4.58325 6.50002C4.16904 6.50002 3.83325 6.16423 3.83325 5.75002V4.08335C3.83325 3.66914 4.16904 3.33335 4.58325 3.33335Z">
            </path>
            <path
                d="M5.41667 8.25002C5.41667 7.78978 5.04357 7.41669 4.58333 7.41669C4.1231 7.41669 3.75 7.78978 3.75 8.25002C3.75 8.71026 4.1231 9.08335 4.58333 9.08335C5.04357 9.08335 5.41667 8.71026 5.41667 8.25002Z">
            </path>
            <path
                d="M5.41667 10.75C5.41667 10.2898 5.04357 9.91669 4.58333 9.91669C4.1231 9.91669 3.75 10.2898 3.75 10.75C3.75 11.2103 4.1231 11.5834 4.58333 11.5834C5.04357 11.5834 5.41667 11.2103 5.41667 10.75Z">
            </path>
        </symbol>
        <symbol xmlns="http://www.w3.org/2000/svg" viewBox="0 0 18 16" id="toilet">
            <path
                d="M14 0.5C15.2116 0.5 16.0433 1.52917 16.525 2.57083C17.0008 3.60417 17.29 4.9525 17.3291 6.41167L17.3333 6.75V14.6667C17.3334 14.779 17.3108 14.8901 17.2668 14.9935C17.2229 15.0968 17.1585 15.1902 17.0776 15.268C16.9966 15.3459 16.9008 15.4065 16.7958 15.4464C16.6908 15.4863 16.5788 15.5045 16.4666 15.5L16.3633 15.4883L14 15.095L11.6366 15.4883C11.5366 15.505 11.4344 15.5033 11.335 15.4833L11.2366 15.4575L8.99996 14.7117L6.76329 15.4575C6.64597 15.4966 6.52143 15.5091 6.39869 15.4941C6.27594 15.479 6.15808 15.4369 6.05365 15.3707C5.94922 15.3045 5.86083 15.2158 5.7949 15.1112C5.72897 15.0066 5.68714 14.8886 5.67246 14.7658L5.66663 14.6667V12.2275C5.22413 12.6858 4.66996 13 3.99996 13C2.78829 13 1.95663 11.9708 1.47496 10.9292C0.963293 9.81667 0.666626 8.33833 0.666626 6.75C0.666626 5.16167 0.962459 3.68333 1.47496 2.57083C1.93413 1.57583 2.71329 0.593333 3.83746 0.506667L3.99996 0.5H14ZM14 2.16667H6.31829C6.39329 2.3 6.46163 2.435 6.52413 2.57083C7.03746 3.68333 7.33329 5.16167 7.33329 6.75V13.5108L8.73663 13.0425C8.90757 12.9856 9.09235 12.9856 9.26329 13.0425L11.5675 13.8108L13.8633 13.4275C13.9533 13.4125 14.0466 13.4125 14.1366 13.4275L15.6666 13.6833V6.75C15.6666 5.34667 15.4025 4.11667 15.0108 3.26917C14.5875 2.35 14.1691 2.16667 14 2.16667ZM3.99996 2.16667C3.83079 2.16667 3.41246 2.35 2.98913 3.26917C2.59746 4.11667 2.33329 5.34667 2.33329 6.75C2.33329 8.15333 2.59746 9.38333 2.98913 10.2308C3.41246 11.15 3.83079 11.3333 3.99996 11.3333C4.16913 11.3333 4.58746 11.15 5.01079 10.2308C5.40246 9.38333 5.66663 8.15333 5.66663 6.75C5.66663 5.34667 5.40246 4.11667 5.01079 3.26917C4.58746 2.35 4.16913 2.16667 3.99996 2.16667ZM3.99996 5.08333C4.45996 5.08333 4.83329 5.82917 4.83329 6.75C4.83329 7.67083 4.45996 8.41667 3.99996 8.41667C3.53996 8.41667 3.16663 7.67083 3.16663 6.75C3.16663 5.82917 3.53996 5.08333 3.99996 5.08333Z">
            </path>
        </symbol>
        <symbol xmlns="http://www.w3.org/2000/svg" viewBox="0 0 20 20" id="freezer">
            <path
                d="M5.37913 2.52498C5.04776 2.52498 4.77913 2.7936 4.77913 3.12498V15.8666C4.77913 16.198 5.04776 16.4666 5.37913 16.4666H14.625C14.9563 16.4666 15.225 16.198 15.225 15.8666V3.12498C15.225 2.7936 14.9563 2.52498 14.625 2.52498H5.37913ZM3.47913 3.12498C3.47913 2.07563 4.32978 1.22498 5.37913 1.22498H14.625C15.6743 1.22498 16.525 2.07563 16.525 3.12498V15.8666C16.525 16.916 15.6743 17.7666 14.625 17.7666H5.37913C4.32978 17.7666 3.47913 16.916 3.47913 15.8666V3.12498Z">
            </path>
            <path
                d="M6.31664 2.34998C6.67563 2.34998 6.96664 2.64099 6.96664 2.99998V5.52498C6.96664 5.88396 6.67563 6.17498 6.31664 6.17498C5.95766 6.17498 5.66664 5.88396 5.66664 5.52498V2.99998C5.66664 2.64099 5.95766 2.34998 6.31664 2.34998ZM3.34998 7.12498C3.34998 6.76599 3.64099 6.47498 3.99998 6.47498H15.7416C16.1006 6.47498 16.3916 6.76599 16.3916 7.12498C16.3916 7.48396 16.1006 7.77498 15.7416 7.77498H3.99998C3.64099 7.77498 3.34998 7.48396 3.34998 7.12498ZM6.31664 7.89581C6.67563 7.89581 6.96664 8.18682 6.96664 8.54581V11.0708C6.96664 11.4298 6.67563 11.7208 6.31664 11.7208C5.95766 11.7208 5.66664 11.4298 5.66664 11.0708V8.54581C5.66664 8.18682 5.95766 7.89581 6.31664 7.89581ZM5.13748 15.3875C5.49646 15.3875 5.78748 15.6785 5.78748 16.0375V16.3958H6.65414V16.0375C6.65414 15.6785 6.94516 15.3875 7.30414 15.3875C7.66313 15.3875 7.95414 15.6785 7.95414 16.0375V16.475C7.95414 16.7988 7.82552 17.1093 7.59657 17.3382C7.36762 17.5672 7.05709 17.6958 6.73331 17.6958H5.6994C5.37716 17.6935 5.06892 17.5638 4.84189 17.3351C4.61487 17.1064 4.48747 16.7972 4.48748 16.475C4.48748 16.475 4.48748 16.475 4.48748 16.475V16.0375C4.48748 15.6785 4.77849 15.3875 5.13748 15.3875ZM12.4333 15.3875C12.7923 15.3875 13.0833 15.6785 13.0833 16.0375V16.3958H13.9583V16.0375C13.9583 15.6785 14.2493 15.3875 14.6083 15.3875C14.9673 15.3875 15.2583 15.6785 15.2583 16.0375V16.475C15.2583 16.7988 15.1297 17.1093 14.9007 17.3382C14.6718 17.5672 14.3613 17.6958 14.0375 17.6958H13.0041C12.6804 17.6958 12.3698 17.5672 12.1409 17.3382C11.9119 17.1093 11.7833 16.7988 11.7833 16.475V16.0375C11.7833 15.6785 12.0743 15.3875 12.4333 15.3875Z">
            </path>
        </symbol>
        <symbol viewBox="0 0 20 20" id="gas">
            <path
                d="M15.6699 8.74467C15.44 8.46132 15.16 8.21576 14.9001 7.9702C14.2302 7.40352 13.4703 6.99739 12.8305 6.40238C11.3407 5.02345 11.0108 2.74727 11.9606 1C11.0108 1.21723 10.1809 1.70835 9.47107 2.2467C6.88155 4.2112 5.86173 7.67741 7.08151 10.6525C7.1215 10.7469 7.16149 10.8414 7.16149 10.9642C7.16149 11.172 7.01152 11.3609 6.81156 11.4364C6.5816 11.5309 6.34165 11.4742 6.15168 11.3231C6.09459 11.2785 6.04708 11.224 6.01171 11.1625C4.88191 9.81192 4.70194 7.87575 5.46181 6.32682C3.79211 7.6113 2.88228 9.78358 3.01225 11.8331C3.07224 12.3053 3.13223 12.7776 3.3022 13.2498C3.44218 13.8165 3.71213 14.3832 4.01207 14.8837C5.09187 16.5177 6.96153 17.6888 8.97116 17.9249C11.1108 18.1799 13.4004 17.8116 15.0401 16.4138C16.8697 14.846 17.5096 12.3337 16.5698 10.1803L16.4398 9.9347C16.2298 9.50024 15.6699 8.74467 15.6699 8.74467ZM12.5105 14.6948C12.2306 14.9215 11.7707 15.1671 11.4107 15.2615C10.2909 15.6393 9.17113 15.1104 8.51125 14.4871C9.70103 14.2226 10.4109 13.3915 10.6209 12.5509C10.7908 11.7953 10.4709 11.172 10.3409 10.4447C10.2209 9.7458 10.2409 9.15079 10.5109 8.4991C10.7008 8.858 10.9008 9.2169 11.1408 9.50024C11.9106 10.4447 13.1204 10.8603 13.3804 12.1448C13.4203 12.277 13.4403 12.4092 13.4403 12.5509C13.4703 13.3254 13.1104 14.1754 12.5105 14.6948Z">
            </path>
        </symbol>
        <symbol xmlns="http://www.w3.org/2000/svg" viewBox="0 0 20 20" id="water">
            <path
                d="M10.0002 3.08895C9.33727 3.88136 8.19887 5.31826 7.18498 6.96991C6.03176 8.84851 5.125 10.8709 5.125 12.5C5.125 14.0664 5.61483 15.2681 6.42335 16.0767C7.23186 16.8852 8.43356 17.375 10 17.375C11.5664 17.375 12.7681 16.8852 13.5767 16.0767C14.3852 15.2681 14.875 14.0664 14.875 12.5C14.875 10.8709 13.9682 8.8485 12.8151 6.9699C11.8012 5.31829 10.663 3.88142 10.0002 3.08895ZM9.49065 1.5462C9.65045 1.47265 9.82428 1.43457 10.0002 1.43457C10.1761 1.43457 10.3499 1.47265 10.5097 1.5462C10.6695 1.61975 10.8115 1.72702 10.9259 1.86063L10.9264 1.86115C11.5566 2.59852 12.9018 4.24386 14.0934 6.18518C15.2656 8.09467 16.375 10.4248 16.375 12.5C16.375 14.3855 15.7783 15.9963 14.6373 17.1373C13.4963 18.2783 11.8855 18.875 10 18.875C8.11448 18.875 6.50368 18.2783 5.36269 17.1373C4.22169 15.9963 3.625 14.3855 3.625 12.5C3.625 10.4248 4.73445 8.09466 5.90663 6.18517C7.09835 4.24384 8.4436 2.59849 9.07409 1.86106L9.07445 1.86063C9.18887 1.72701 9.33085 1.61974 9.49065 1.5462Z">
            </path>
            <path
                d="M13.4375 12.0625C13.8517 12.0625 14.1875 12.3983 14.1875 12.8125C14.1875 13.7573 13.8122 14.6635 13.1441 15.3316C12.476 15.9997 11.5698 16.375 10.625 16.375C10.2108 16.375 9.875 16.0392 9.875 15.625C9.875 15.2108 10.2108 14.875 10.625 14.875C11.172 14.875 11.6966 14.6577 12.0834 14.2709C12.4702 13.8841 12.6875 13.3595 12.6875 12.8125C12.6875 12.3983 13.0233 12.0625 13.4375 12.0625Z">
            </path>
        </symbol>
        <symbol xmlns="http://www.w3.org/2000/svg" viewBox="0 0 20 16" id="micro">
            <path
                d="M0.428517 1.28563C0.693747 1.0204 1.05348 0.871399 1.42857 0.871399H18.5714C18.9465 0.871399 19.3062 1.0204 19.5715 1.28563C19.8367 1.55086 19.9857 1.91059 19.9857 2.28568V13.7143C19.9857 14.0893 19.8367 14.4491 19.5715 14.7143C19.3062 14.9795 18.9465 15.1285 18.5714 15.1285H1.42857C1.05348 15.1285 0.693748 14.9795 0.428517 14.7143C0.163286 14.4491 0.0142822 14.0893 0.0142822 13.7143V2.28568C0.0142822 1.91059 0.163287 1.55086 0.428517 1.28563ZM1.42857 2.2714C1.42478 2.2714 1.42115 2.2729 1.41847 2.27558C1.41579 2.27826 1.41428 2.2819 1.41428 2.28568V13.7143C1.41428 13.718 1.41579 13.7217 1.41847 13.7244C1.42114 13.727 1.42478 13.7285 1.42857 13.7285H18.5714C18.5752 13.7285 18.5788 13.727 18.5815 13.7244C18.5842 13.7217 18.5857 13.718 18.5857 13.7143V2.28568C18.5857 2.28189 18.5842 2.27826 18.5815 2.27558C18.5788 2.2729 18.5752 2.2714 18.5714 2.2714H1.42857Z">
            </path>
            <path
                d="M3.28569 4.14275C3.55092 3.87752 3.91065 3.72852 4.28575 3.72852H12.1429C12.518 3.72852 12.8777 3.87752 13.1429 4.14275C13.4082 4.40798 13.5572 4.76771 13.5572 5.1428V10.8571C13.5572 11.2322 13.4082 11.5919 13.1429 11.8571C12.8777 12.1224 12.518 12.2714 12.1429 12.2714H4.28575C3.91065 12.2714 3.55093 12.1224 3.28569 11.8571C3.02046 11.5919 2.87146 11.2322 2.87146 10.8571V5.1428C2.87146 4.76771 3.02047 4.40798 3.28569 4.14275ZM4.28575 5.12852C4.28196 5.12852 4.27832 5.13002 4.27564 5.1327C4.27296 5.13538 4.27146 5.13901 4.27146 5.1428V10.8571C4.27146 10.8609 4.27297 10.8645 4.27564 10.8672C4.27832 10.8699 4.28196 10.8714 4.28575 10.8714H12.1429C12.1467 10.8714 12.1503 10.8699 12.153 10.8672C12.1557 10.8645 12.1572 10.8609 12.1572 10.8571V5.1428C12.1572 5.13901 12.1557 5.13538 12.153 5.1327C12.1503 5.13002 12.1467 5.12852 12.1429 5.12852H4.28575ZM15.0143 5.1428C15.0143 4.7562 15.3277 4.4428 15.7143 4.4428H16.4286C16.8152 4.4428 17.1286 4.7562 17.1286 5.1428C17.1286 5.5294 16.8152 5.8428 16.4286 5.8428H15.7143C15.3277 5.8428 15.0143 5.5294 15.0143 5.1428ZM15.0143 7.99994C15.0143 7.61334 15.3277 7.29994 15.7143 7.29994H16.4286C16.8152 7.29994 17.1286 7.61334 17.1286 7.99994C17.1286 8.38654 16.8152 8.69994 16.4286 8.69994H15.7143C15.3277 8.69994 15.0143 8.38654 15.0143 7.99994Z">
            </path>
        </symbol>
    </defs>
</svg>